<svg width="415" height="415" viewBox="0 0 415 415" fill="none" xmlns="http://www.w3.org/2000/svg">
<path d="M207.5 0L209.455 170.201L229.19 1.1367L213.343 170.61L250.642 4.53438L217.167 171.423L271.621 10.1558L220.885 172.631L291.898 17.9393L224.457 174.221L311.25 27.7997L227.842 176.176L329.465 39.629L231.005 178.474L346.345 53.2975L233.91 181.09L361.703 68.6554L236.526 183.995L375.371 85.5346L238.824 187.158L387.2 103.75L240.779 190.543L397.061 123.102L242.369 194.115L404.844 143.379L243.577 197.833L410.466 164.358L244.39 201.657L413.863 185.81L244.799 205.545L415 207.5L244.799 209.455L413.863 229.19L244.39 213.343L410.466 250.642L243.577 217.167L404.844 271.621L242.369 220.885L397.061 291.898L240.779 224.457L387.2 311.25L238.824 227.842L375.371 329.465L236.526 231.005L361.703 346.345L233.91 233.91L346.345 361.703L231.005 236.526L329.465 375.371L227.842 238.824L311.25 387.2L224.457 240.779L291.898 397.061L220.885 242.369L271.621 404.844L217.167 243.577L250.642 410.466L213.343 244.39L229.19 413.863L209.455 244.799L207.5 415L205.545 244.799L185.81 413.863L201.657 244.39L164.358 410.466L197.833 243.577L143.379 404.844L194.115 242.369L123.102 397.061L190.543 240.779L103.75 387.2L187.158 238.824L85.5346 375.371L183.995 236.526L68.6554 361.703L181.09 233.91L53.2975 346.345L178.474 231.005L39.629 329.465L176.176 227.842L27.7997 311.25L174.221 224.457L17.9393 291.898L172.631 220.885L10.1558 271.621L171.423 217.167L4.53438 250.642L170.61 213.343L1.1367 229.19L170.201 209.455L0 207.5L170.201 205.545L1.1367 185.81L170.61 201.657L4.53438 164.358L171.423 197.833L10.1558 143.379L172.631 194.115L17.9393 123.102L174.221 190.543L27.7997 103.75L176.176 187.158L39.629 85.5346L178.474 183.995L53.2975 68.6554L181.09 181.09L68.6554 53.2975L183.995 178.474L85.5346 39.629L187.158 176.176L103.75 27.7997L190.543 174.221L123.102 17.9393L194.115 172.631L143.379 10.1558L197.833 171.423L164.358 4.53438L201.657 170.61L185.81 1.1367L205.545 170.201L207.5 0Z" fill="#FF6818"/>
</svg>
