<svg width="1081" height="7" viewBox="0 0 1081 7" fill="none" xmlns="http://www.w3.org/2000/svg">
<path d="M1080.18 4.52976C1080.75 4.35976 1080.43 3.96975 1078.86 4.04975L1077.75 4.70975L1080.18 4.52976Z" fill="#2C2A29"/>
<path d="M1069.64 3.30957C1067.8 3.62957 1065.64 4.18956 1066.87 4.79956C1068.69 4.15956 1069.13 4.42956 1071.1 3.66956C1072.66 3.58956 1073.83 3.87958 1073.57 4.12958C1074.12 3.95958 1076 4.26956 1076.85 3.85956C1074.43 3.34121 1071.94 3.30385 1069.52 3.74957C1068.97 3.59957 1069.51 3.42957 1069.64 3.30957Z" fill="#2C2A29"/>
<path d="M916.475 2.26953L917.475 2.34955C917.195 2.30955 916.855 2.28953 916.475 2.26953Z" fill="#2C2A29"/>
<path d="M821.585 1.90955C822.305 1.90955 822.585 1.82953 822.645 1.76953C821.965 1.80953 821.425 1.84955 821.585 1.90955Z" fill="#2C2A29"/>
<path d="M805.375 1.17994L806.375 1.22993C806.047 1.15736 805.709 1.14047 805.375 1.17994Z" fill="#2C2A29"/>
<path d="M916.475 2.27029L913.945 2.07031C913.765 2.28031 915.245 2.23029 916.475 2.27029Z" fill="#2C2A29"/>
<path d="M1048.52 4.90048C1048.98 4.8759 1049.44 4.81909 1049.9 4.73047L1048.6 4.80048C1048.58 4.84019 1048.55 4.87466 1048.52 4.90048Z" fill="#2C2A29"/>
<path d="M958.305 1.73972H959.075C959.294 1.66367 959.508 1.5735 959.715 1.46973L958.305 1.73972Z" fill="#2C2A29"/>
<path d="M990.415 1.63965C989.685 1.63965 989.415 2.16965 989.155 2.41965C989.649 2.17999 990.187 2.04711 990.735 2.02966C990.755 1.92966 990.655 1.79965 990.415 1.63965Z" fill="#2C2A29"/>
<path d="M1041.32 2.62982L1042.23 2.5498C1041.97 2.5698 1041.6 2.58982 1041.32 2.62982Z" fill="#2C2A29"/>
<path d="M935.335 1.61993C935.261 1.52145 935.155 1.45099 935.035 1.41992C935.035 1.48992 935.155 1.54993 935.335 1.61993Z" fill="#2C2A29"/>
<path d="M37.3853 5.84024C37.3853 5.84024 37.3853 5.78023 37.3853 5.74023C37.1953 5.80023 37.1453 5.84024 37.3853 5.84024Z" fill="#2C2A29"/>
<path d="M0.175293 3.06024H0.685242C0.751066 2.96513 0.792351 2.85518 0.805298 2.74023L0.175293 3.06024Z" fill="#2C2A29"/>
<path d="M775.725 0.459635H775.855C776.635 0.409635 776.195 0.419635 775.725 0.459635Z" fill="#2C2A29"/>
<path d="M503.525 0.879883C506.605 1.37988 498.525 1.51986 503.145 2.07986C502.715 1.85986 507.365 1.17988 503.525 0.879883Z" fill="#2C2A29"/>
<path d="M1047.69 4.83008H1046.37C1046.97 4.85008 1047.38 4.85008 1047.69 4.83008Z" fill="#2C2A29"/>
<path d="M503.145 2.08008L503.625 2.14008L503.145 2.08008Z" fill="#2C2A29"/>
<path d="M707.405 0.799805C707.626 0.91432 707.862 0.998416 708.105 1.0498C708.085 0.989805 707.965 0.919805 707.405 0.799805Z" fill="#2C2A29"/>
<path d="M758.305 1.59955L757.045 1.51953C757.545 1.57953 757.965 1.58955 758.305 1.59955Z" fill="#2C2A29"/>
<path d="M680.965 1.59041C680.347 1.52716 679.724 1.52716 679.105 1.59041L679.395 1.66041C679.91 1.54391 680.442 1.5202 680.965 1.59041Z" fill="#2C2A29"/>
<path d="M653.475 1.59961L653.985 1.70959H654.855L653.475 1.59961Z" fill="#2C2A29"/>
<path d="M120.965 5.57031C120.52 5.46499 120.093 5.29662 119.695 5.07031C120.135 5.46031 116.095 5.61031 120.965 5.57031Z" fill="#2C2A29"/>
<path d="M1048.51 4.58984C1048.26 4.75521 1047.98 4.83929 1047.69 4.82983H1048.6C1048.68 4.71983 1048.7 4.63984 1048.51 4.58984Z" fill="#2C2A29"/>
<path d="M679.865 6.03043L675.495 5.94043C676.715 6.00043 678.305 6.03043 679.865 6.03043Z" fill="#2C2A29"/>
<path d="M318.315 5.49023L317.315 5.56024C317.65 5.57588 317.986 5.55238 318.315 5.49023Z" fill="#2C2A29"/>
<path d="M662.525 6.02966C661.718 5.83105 660.895 5.70058 660.065 5.63965C659.891 5.66913 659.72 5.71604 659.555 5.77966L662.525 6.02966Z" fill="#2C2A29"/>
<path d="M90.9653 6.38998C95.1353 6.38998 92.9653 5.67 93.8053 5.25C98.8053 5.04 96.1053 5.78998 97.8053 6.16998C100.915 5.96998 103.295 5.30001 105.605 5.32001C105.775 5.45001 106.225 5.48998 105.705 5.63998C108.985 5.05998 115.435 5.64001 119.265 4.88C119.443 4.90521 119.613 4.96647 119.765 5.06C119.145 4.69 119.045 4.31 119.175 4.06C121.045 4.06 122.635 3.59 123.345 4.06C122.734 4.02886 122.125 4.14189 121.565 4.38998L123.565 4.17999C125.325 4.87999 120.895 4.42 120.895 4.94C124.705 4.71 129.155 4.13999 132.075 4.32999C132.685 5.00999 125.235 4.55998 129.135 5.16998L124.615 4.91C128.075 5.98 121.865 4.82998 125.045 5.97998C130.995 6.16998 131.705 5.62999 137.635 5.82999C138.975 5.44999 137.195 5.26998 138.535 4.88998C146.975 4.21998 145.175 6.59998 151.375 5.69998C152.985 5.23998 153.605 4.38 158.025 4.84L156.515 5.60999C162.275 5.67999 159.805 4.49999 165.845 5.01999C164.765 5.31999 161.315 5.27 162.185 5.37C166.095 5.97 164.945 4.92999 167.955 4.92999L168.575 5.60999C174.715 5.49999 181.465 5.00998 188.265 4.88998C187.885 5.08998 186.725 5.29998 188.315 5.50998C196.885 5.16998 206.605 5.59 214.865 6L218.025 5.41C218.765 5.41 219.385 5.67998 218.595 5.78998C221.815 6.00998 218.765 5.42 220.305 5.19C222.145 5.19 222.735 5.51998 221.565 5.69998C227.255 5.19998 237.765 4.62998 243.745 5.25998L242.585 5.42999C247.245 5.66999 247.845 4.23 252.165 4.78L251.345 4.88C261.465 5.13 272.645 4.59998 280.345 5.47998C281.805 4.63998 290.345 5.85999 291.005 4.67999C296.785 5.25999 295.135 5.48 303.275 5.87C305.445 5.92 306.515 5.12998 309.205 5.00998L309.265 5.63L312.915 4.97998L314.855 5.72L317.375 5.56C316.375 5.56 315.245 5.28001 315.375 5.10001C319.315 4.82001 324.975 5.53001 325.075 5.85001L334.385 5.32999C334.185 5.57999 332.625 5.66001 331.385 5.82001C336.385 5.19001 332.295 6.46998 336.845 5.88998C336.235 5.74998 337.175 5.51999 337.285 5.39999C341.028 5.75622 344.792 5.82976 348.545 5.62L347.815 6.03998C354.725 6.14998 362.385 5.84001 370.135 5.85001C367.355 5.65001 367.995 4.91001 370.265 4.85001L371.175 5.5C372.645 5.1 368.805 5.25998 371.815 4.75998C374.715 4.83998 373.765 5.50998 372.105 5.75998L375.625 5.53C375.825 5.73 375.005 5.82999 374.785 6.07999C376.235 5.66999 380.865 6.73 382.955 6.03L383.155 6.22C390.905 6.22 394.415 6 400.735 5.97C400.855 5.41 403.325 5.52999 405.205 5.07999C409.845 5.25999 415.005 5.69999 420.595 5.64999C424.525 5.36999 421.735 5.18 423.505 4.84C423.795 5.35 429.385 5.30998 426.505 5.66998C433.215 5.58998 435.075 5.57 443.565 5.16C442.645 4.95 441.565 4.84999 442.145 4.67999C443.685 4.59999 445.645 4.88998 445.425 5.13998H445.015C454.545 4.37998 467.015 6.64001 474.595 5.57001L474.165 5.62L482.035 5.07001C485.655 5.15001 479.865 5.44999 482.545 5.76999C491.025 4.90999 495.955 5.89001 502.935 5.32001C508.345 6.83001 522.135 5.21999 529.435 6.17999L529.015 5.82001C530.905 5.48001 531.295 6.02999 532.685 6.10999C532.495 5.82999 530.685 5.79001 531.815 5.60001C547.815 5.17001 564.815 6.12 581.205 6.44C587.205 6.53 584.605 4.6 592.205 5.44L590.065 6.10001C602.165 5.30001 614.805 6.09998 626.645 5.44998C626.045 5.68054 625.408 5.79917 624.765 5.79999C627.265 6.27999 634.015 5.79999 634.055 5.42999C635.895 5.47999 634.485 5.78998 635.615 5.97998C638.125 6.26998 641.915 5.37001 643.245 5.85001C643.475 5.93001 642.545 6.00998 642.085 6.03998C643.715 5.80998 649.705 6.09999 648.085 5.54999C652.535 5.80999 656.585 5.3 660.085 5.63C662.395 5.01 667.695 5.92999 668.425 5.04999C668.105 5.95999 676.215 5.77999 679.025 5.35999C678.085 5.62999 681.475 5.63999 680.375 6.01999C683.575 6.01999 686.515 5.83999 685.955 5.37C691.865 6.45 697.835 4.49998 701.165 5.88998C710.685 5.39998 719.505 5.06998 728.075 4.88998C727.765 5.78998 718.605 4.97998 718.965 5.88998C727.095 5.51998 731.785 4.73999 739.855 4.95999C741.935 5.07999 738.665 5.34998 737.965 5.50998C746.085 5.12998 753.665 5.59001 760.895 5.10001C760.395 5.24662 759.877 5.32729 759.355 5.34C760.785 5.34 762.665 5.47 762.505 5.06L761.115 5.16998C758.845 4.57998 766.775 3.93 767.025 3.62C764.615 4.79 774.165 3.90999 770.325 5.39999C771.265 5.31999 772.445 5.13001 772.225 4.85001C773.615 4.93001 774.055 5.08999 772.645 5.39999C777.755 5.17999 775.935 4.74 780.555 4.75C780.555 4.95 779.615 5.02998 779.135 5.25998C781.969 4.72664 784.855 4.52531 787.735 4.66C787.495 4.78 787.945 4.92999 786.785 4.92999C793.495 4.86999 798.215 3.92999 805.575 4.26999C803.405 5.12999 808.085 4.55999 808.475 5.26999L812.425 5.04999L810.845 4.69C814.305 4.69 817.375 4.15999 820.355 4.39999L817.775 4.70999L824.275 4.57001L820.595 4.28C824.105 3.9 820.215 3.33999 824.835 3.54999C823.895 3.61999 828.305 3.55 830.105 4C832.087 3.66676 834.1 3.56274 836.105 3.69C836.775 3.93 835.575 4.52 836.005 4.69C837.695 4.07 844.125 4.52001 846.265 3.85001C845.555 4.01001 845.515 4.39998 845.755 4.47998L847.175 3.97C848.775 4.13 849.015 4.21 848.755 4.53C853.585 4.62 847.215 3.57999 852.945 3.98999C852.559 4.0746 852.169 4.13803 851.775 4.17999C857.535 4.38999 862.905 3.85999 868.195 4.10999C869.755 4.85999 863.565 4.28999 865.355 4.92999C872.985 4.78999 881.155 4.02998 888.535 4.19998L887.165 4.17999C888.165 3.11999 892.665 4.69999 896.405 4.17999C895.485 4.25999 895.205 4.76999 895.405 4.64999C900.465 4.81999 905.745 4.39 913.405 4.06L912.405 4.32999C915.405 4.57999 920.255 4.47001 923.475 4.60001C924.425 4.32001 926.265 4.37 925.145 3.97C935.075 5.52 944.075 3.13999 952.885 4.42999C951.825 4.42999 950.375 4.66998 951.205 4.66998L958.705 4.41998C958.115 3.95998 957.705 4.14 956.155 3.78C957.773 3.43897 959.423 3.27798 961.075 3.29999C957.705 3.59999 961.075 4.03999 962.565 4.29999C962.315 4.14999 962.815 4.00001 962.695 3.85001C966.605 4.68001 963.345 2.91998 968.695 3.47998L968.415 3.72C970.415 3.6 972.265 3.28 974.415 3.34C975.315 3.88 972.285 3.59 972.155 4.03C975.155 4.03 978.155 3.02999 980.875 3.54999C979.595 3.69999 977.735 3.71001 976.455 3.85001C978.275 4.2656 980.139 4.457 982.005 4.41998H981.785L986.925 4.69998L985.615 4.53C989.405 3.14 993.335 4.27999 998.455 3.35999C993.455 4.22999 997.625 3.86 997.245 4.47C998.555 4.64 1000.54 4.83 999.975 5C1002.39 4.51 1003.98 5.37998 1007.42 4.66998C1007.57 4.85998 1010 4.66999 1009.42 5.17999C1012.56 5.01999 1008.68 4.84 1008.94 4.59C1013.78 3.93 1020.32 5.39999 1027.28 4.48999C1033.28 4.10999 1034.4 3.49 1039.97 3.12C1041.85 3.44 1038.43 3.82999 1038.43 3.82999C1041.15 4.08481 1043.88 4.08481 1046.61 3.82999C1046.03 3.99999 1046.61 4.13999 1047.5 4.35999C1049.79 4.30999 1049.03 3.65 1052.06 3.94C1051.32 4.28574 1050.56 4.54741 1049.77 4.72C1052.47 4.54 1055.14 4.18 1057.94 4C1058.68 4.34 1056.25 4.51999 1055.26 4.73999C1058.41 4.57999 1063.42 4.42998 1064.39 3.88998L1062.39 3.69998C1063.53 3.69998 1062.98 4.15998 1062.13 4.25998C1059.44 4.67998 1058.24 4.07 1058.13 3.88L1060.13 3.75C1058.13 2.61 1052.13 3.94 1048.13 3.87L1049.81 3.03998L1045.69 3.72998C1044.82 3.50998 1044.22 3.04998 1046.2 2.91998C1043.32 2.50998 1043.65 3.21998 1041.2 2.75998C1040.93 2.68998 1041.05 2.65 1041.3 2.62L1038.49 2.85999C1039.04 2.68999 1038.03 2.27999 1039.75 2.39999C1034.75 1.91999 1031.62 3.01999 1029.75 2.39999L1030.17 2.35001C1023.17 2.63001 1029.49 2.95999 1024.24 3.67999L1020.7 2.17999L1020.01 2.78998C1019.29 2.78998 1017.86 2.71998 1018.12 2.47998C1015.43 2.89998 1018.58 2.73998 1017.02 3.13998C1013.54 2.57998 1007.44 3.39999 1006.65 2.42999C1005.4 2.88999 1009.98 2.77999 1006.27 3.10999C1005.21 2.05999 1001.98 3.29 998.795 2.81C999.795 2.27 1002.8 2.55001 999.605 2.07001C997.685 2.98001 993.415 1.87001 990.735 2.07001C990.615 2.80001 984.915 2.38 980.425 2.62C980.705 2.38 971.965 2.21999 967.785 1.95999L967.905 1.84C967.095 2.57 962.785 2.42999 959.645 2.57999C959.765 2.13999 960.335 1.96999 962.035 1.76999H959.035C957.884 2.0755 956.697 2.22352 955.505 2.20999L956.245 1.66C952.325 1.66 948.335 2.31 943.245 1.94C942.955 2.45 947.245 3.36999 941.915 3.70999C941.715 3.42999 941.515 2.96001 942.915 2.85001C942.071 2.97317 941.217 3.01001 940.365 2.95999L942.495 2.48999C940.195 2.28999 941.295 2.88 939.495 2.84C939.495 2.44 938.125 2.55999 938.395 2.23999C939.164 2.30087 939.937 2.30087 940.705 2.23999C938.886 2.22851 937.073 2.02742 935.295 1.63998C935.475 1.85998 935.295 2.17 933.775 2.22C929.845 2.22 932.425 1.73998 930.135 1.53998C929.185 1.81998 926.675 1.54 926.605 2.12C925.976 2.14494 925.352 1.99248 924.805 1.67999C922.805 1.93999 915.305 1.75998 917.595 2.38998H918.115H917.785C911.115 2.97998 903.935 2.06 897.325 2.31V2.17999C893.325 2.40999 888.535 2.31999 885.715 2.73999C884.555 2.73999 882.965 2.37999 883.465 2.14999C880.898 2.3928 878.313 2.3928 875.745 2.14999C878.745 1.80999 874.695 1.84999 878.855 1.89999C874.935 1.72999 874.045 1.40999 869.855 1.89999C871.285 1.39999 866.905 1.25998 865.045 1.41998L867.785 1.78C865.695 1.85 863.855 1.78 861.995 1.78L862.995 1.12C854.995 0.309995 848.525 2.5 842.415 1.12C840.295 1.59 846.775 1.44999 844.875 1.98999C841.185 1.89999 837.335 0.98999 836.185 0.98999C831.125 0.61999 831.465 1.98999 826.185 1.70999C826.855 1.93999 827.495 2.57999 823.545 2.79999C819.855 2.70999 819.005 1.79999 821.335 1.60999C822.225 1.60999 822.645 1.67 822.615 1.75C823.805 1.66 825.375 1.55999 823.905 1.29999L823.425 1.53998C821.595 1.29998 816.515 1.32 817.705 0.940002C814.915 1.16 816.515 1.31998 818.585 1.44998C813.845 1.09998 811.185 1.44999 806.305 1.20999C807.075 1.33999 807.795 1.61999 807.025 1.60999C799.865 1.31999 803.875 2.05998 799.025 2.16998C796.275 1.80998 800.025 1.29999 795.135 1.60999C792.135 1.35999 794.505 0.979999 795.685 0.779999C791.245 1.24 787.385 0.479994 784.845 0.399994L787.185 0.209991C785.785 0.319991 784.635 0.320007 783.475 0.320007L784.805 0.789978C783.435 0.709978 782.265 0.709979 782.295 0.509979C780.875 0.819979 783.375 1.3 780.565 1.72C778.735 1.48 774.985 1.98001 774.355 1.35001C780.115 1.57001 773.715 0.719995 778.595 0.619995C777.44 0.695039 776.281 0.695039 775.125 0.619995C774.925 0.549995 775.325 0.489982 775.695 0.449982C770.185 -0.110018 773.165 1.15999 767.445 1.14999C768.175 0.789994 766.125 0.479988 765.185 0.549988C767.495 0.549988 766.295 1.13998 764.185 1.41998C760.525 1.13998 760.185 1.62 758.285 1.59L760.475 1.72C759.735 2.07 757.905 2.02998 755.345 2.13998C755.125 1.85998 757.665 1.94999 756.755 1.82999C753.915 2.44999 750.345 1.18001 746.385 1.60001C744.555 1.36001 746.215 0.929989 744.605 0.769989C740.165 1.22999 739.805 0.289983 735.145 0.669983C736.485 1.13998 736.715 1.02999 733.435 1.48999L741.095 1.16L736.185 1.85001C738.495 1.85001 741.065 1.55 742.445 1.63C740.105 2.02 740.345 1.89999 741.445 2.29999C738.275 1.57999 735.165 2.70998 731.515 2.22998L731.625 1.04999C726.125 0.519988 721.855 1.65999 714.715 1.35999L717.015 1.56C716.015 2.03 712.605 1.63001 710.295 1.82001C710.505 1.42001 709.065 1.27998 708.075 1.03998C708.195 1.32998 702.845 1.03999 702.205 1.79999L699.015 1.28C693.245 1.06 692.435 2.4 686.895 2.28C688.565 1.85 686.045 1.57 689.755 1.28C687.905 1.28 686.245 1.20998 686.215 1.47998C685.135 1.22998 681.085 2.00998 679.385 1.63998C678.401 2.04806 677.34 2.2358 676.275 2.19C676.045 2.11 676.275 2 676.275 2C676.275 2.19 673.025 2.25998 674.845 2.69998C669.145 1.46998 658.915 2.78998 653.955 1.69998C649.955 1.82998 645.055 1.95999 641.385 1.98999C641.625 1.86999 641.385 1.78999 642.095 1.82999C637.035 1.45999 638.985 2.97 633.225 2.56C630.285 1.92 636.285 2.21 634.455 1.97C633.655 0.670001 627.455 2.14998 623.635 1.38998L624.575 1.31C621.575 0.869998 617.355 1.79999 612.515 1.70999C612.515 1.70999 612.755 1.59998 612.515 1.50998C609.205 2.17998 602.945 2.39999 598.295 2.57999C599.745 2.06999 600.405 2.30998 599.525 1.78998C597.445 1.86998 600.135 2.61998 595.975 2.78998C594.625 2.50998 591.615 2.27 591.225 1.72H595.145C593.145 1 590.065 1.72 587.995 1.62L588.265 1.29999C582.265 1.40999 582.165 2.18998 575.695 2.13998L576.365 2.37C572.825 3.15 573.365 1.92998 569.875 2.50998L568.865 1.67999C566.535 1.86999 560.695 2.45 556.515 2.59C558.885 2.01 563.775 1.70999 566.805 1.35999C564.495 1.35999 558.955 1.42 557.745 1.81C558.738 1.6628 559.743 1.61257 560.745 1.66C557.065 2.35672 553.32 2.66176 549.575 2.57001C550.385 1.04001 537.575 2.19 534.225 1C526.075 1.57 518.065 0.760006 508.565 0.850006C511.935 2.04001 505.795 0.849985 506.375 2.10999C505.295 2.21726 504.206 2.21726 503.125 2.10999L496.425 1.38C494.835 1.03 498.525 1.11 498.325 0.839996C493.485 0.749996 496.325 0.32 493.095 0C493.745 0.43 491.405 0.619991 488.645 0.459991L492.535 1.01999C485.765 1.66999 486.685 0.0199841 479.865 0.639984L482.025 0.25C478.525 0.48 469.115 0.25 465.685 1.25C465.065 1.11 464.245 0.769993 465.785 0.679993C457.425 0.539993 447.175 1.73 440.675 1.12L441.305 0.829987C439.745 0.909987 438.595 1.39 436.635 1.09C436.735 0.959996 437.265 0.789989 436.545 0.769989C434.489 1.05962 432.411 1.1767 430.335 1.12L432.095 0.779999C423.945 0.389999 419.585 1.6 412.745 1.78C412.745 0.899999 406.335 0.610001 403.135 0.470001L403.245 0.339996C393.745 0.239996 387.115 1.06998 378.315 1.41998C372.855 0.419983 359.825 1.01998 351.045 0.47998C352.385 0.63998 350.825 1.16998 349.265 1.25998C347.205 1.07998 343.575 1.87 343.905 1.06H344.635C343.085 0.259998 338.855 0.479982 335.545 0.449982L335.005 1.50998C326.355 -0.0300207 312.355 2.06998 307.635 0.699982C305.555 0.959982 302.965 0.960001 300.895 1.22L301.015 0.660004C295.235 0.510004 292.345 0.439987 285.205 0.579987L286.655 0.169983C282.655 0.169983 281.575 1.8 277.855 1.84L276.735 0.98999C269.735 0.98999 262.595 0.25999 255.645 0.98999C255.755 0.86999 255.965 0.619996 257.105 0.589996C253.795 0.589996 244.305 0.0199927 245.505 1.17999C245.425 0.419993 238.255 1.09999 234.455 1.42999L235.045 0.880005C232.512 1.58823 229.896 1.95808 227.265 1.97998C226.205 1.90998 226.335 1.53999 227.745 1.67999C224.215 1.38999 224.995 2.21 220.745 1.91L222.345 1.54999C220.528 1.42421 218.704 1.63786 216.965 2.17999C214.675 2.39999 210.065 2.04 209.535 1.53C208.055 2.06747 206.472 2.26236 204.905 2.10001C204.615 1.91001 205.395 1.79999 205.795 1.73999C199.715 1.35999 196.795 2.39 192.575 1.84C192.485 1.65 192.215 1.55998 191.865 1.50998C196.695 1.50998 200.585 1.51 200.225 1.59C200.225 1.08 196.315 0.989999 199.425 0.279999C196.295 0.659999 190.935 1.51 187.135 1.28C186.962 1.24568 186.794 1.1885 186.635 1.10999L187.025 1.04999C186.225 1.00922 185.422 1.036 184.625 1.13C183.405 1.05 182.625 0.97998 181.475 0.97998C181.025 0.54998 176.995 0.74998 175.055 0.72998C175.215 1.28998 172.665 1.2 175.055 1.66C174.745 1.66 175.425 1.60001 176.715 1.57001C176.993 1.56868 177.27 1.5486 177.545 1.50998H177.415H182.245C180.508 1.88827 178.717 1.95937 176.955 1.72C175.955 2.08 174.855 2.45 174.235 2.63C171.575 1.84 166.445 1.42 165.725 0.940002C159.785 1.25 151.725 1.13998 148.005 2.19998C147.121 2.31166 146.223 2.14752 145.435 1.72998C146.326 1.69519 147.213 1.61509 148.095 1.48999C144.715 1.75999 138.095 1.59999 137.285 2.32999C133.025 1.99999 139.675 1.64999 133.825 1.76999L134.615 1.54999C123.115 0.369988 115.915 3.42998 103.155 1.91998C103.67 1.91704 104.181 2.00507 104.665 2.17999C90.1254 1.50999 74.6654 2.8 60.3554 1.75C56.2754 1.53 55.8354 1.99999 53.3554 2.35999L52.4653 1.75998L48.2153 2.44998C42.2153 2.95998 37.7653 0.970002 30.1253 1.94L31.1253 2.34C28.3853 2.27 22.4353 2.58 22.8953 2.12C22.2651 2.39006 21.5679 2.46325 20.8953 2.32999L20.8054 2.00998L14.0653 2.54999C8.84532 2.31999 14.8853 1.29999 7.26533 1.23999C4.42533 1.35999 -0.814666 2.16 0.265334 2.37C1.40533 2.37 3.18533 2.57 3.26533 2.88L0.665359 3.04999C0.195359 3.97999 -1.79468 4.92999 4.56532 5.57999L9.00532 5.00998L10.4353 5.45999H6.70534C8.36728 5.75689 10.0741 5.68521 11.7053 5.25C12.2794 5.55549 12.9154 5.72646 13.5653 5.75L17.9154 4.85999C18.4454 5.22999 15.9654 5.57998 18.9154 5.78998C20.9154 5.36998 16.9153 4.96998 20.3353 4.69998C22.4553 5.11998 21.8353 5.47001 24.3353 5.10001C24.6853 5.34001 24.1554 5.50001 23.1754 5.60001C25.3854 5.31001 29.0354 5.47999 30.1754 4.98999C32.3854 5.50999 37.6553 4.84998 37.4353 5.72998C39.3908 5.3175 41.3781 5.0733 43.3753 5C39.6553 6.06 50.9953 5.05998 50.0153 6.19998C52.7653 5.24998 59.9553 5.77 64.8253 5.25C64.4287 5.38028 64.0126 5.44116 63.5954 5.42999C65.3708 5.50908 67.1404 5.68938 68.8953 5.97C69.2453 5.19 73.5253 4.97 75.8253 4.53C79.1853 5.28 73.8253 5.44998 74.8253 6.16998C74.6653 5.53998 80.6753 5.53998 79.5253 5.00998C82.1053 5.47998 81.7453 5.23998 83.0753 5.88998C83.5253 4.88998 85.4654 5.72 87.6054 5.12C91.3254 5.6 88.5554 6.03999 92.6054 5.73999C94.5554 6.04999 90.9653 6.38998 90.9653 6.38998ZM188.225 4.69998H186.225H188.225ZM196.395 4.69998C195.395 4.69998 194.165 4.69998 192.855 4.69998C192.565 4.50998 192.855 4.31001 193.695 4.32001C193.205 4.42001 195.125 4.53 196.345 4.69L196.395 4.69998ZM179.105 0.809998C179.743 0.690103 180.402 0.738336 181.015 0.949982C180.405 0.949982 179.685 0.949989 178.755 1.01999C178.7 1.03908 178.647 1.0625 178.595 1.09C178.726 0.961743 178.883 0.862871 179.055 0.799988L179.105 0.809998Z" fill="#2C2A29"/>
<path d="M176.735 1.53049C176.559 1.5422 176.382 1.5422 176.205 1.53049C176.465 1.58049 176.715 1.63049 176.975 1.66049L177.435 1.48047L176.735 1.53049Z" fill="#2C2A29"/>
<path d="M917.635 2.37012H917.465L917.825 2.4501C917.759 2.43124 917.695 2.40439 917.635 2.37012Z" fill="#2C2A29"/>
<path d="M309.215 5.76988L309.195 5.62988L308.485 5.74988L309.215 5.76988Z" fill="#2C2A29"/>
<path d="M962.655 4.2998C962.843 4.37843 963.042 4.42574 963.245 4.43982C963.057 4.36344 962.858 4.31621 962.655 4.2998Z" fill="#2C2A29"/>
<path d="M982.095 4.41992L984.845 4.61993C983.655 4.50993 982.785 4.44992 982.095 4.41992Z" fill="#2C2A29"/>
<path d="M997.045 4.69995C997.163 4.64883 997.263 4.56566 997.335 4.45996L997.045 4.69995Z" fill="#2C2A29"/>
<path d="M759.335 5.3604C759.142 5.34992 758.948 5.34992 758.755 5.3604C757.405 5.5004 758.325 5.4504 759.335 5.3604Z" fill="#2C2A29"/>
<path d="M830.075 4.0498C829.325 4.1498 828.585 4.24981 827.805 4.30981C829.065 4.35981 830.035 4.3698 830.075 4.0498Z" fill="#2C2A29"/>
<path d="M824.515 4.30004C825.61 4.40003 826.711 4.40003 827.805 4.30004C826.709 4.24504 825.611 4.24504 824.515 4.30004Z" fill="#2C2A29"/>
<path d="M1061.85 4.96011H1062.57C1062.57 4.96011 1062.57 4.89012 1062.66 4.87012L1061.85 4.96011Z" fill="#2C2A29"/>
<path d="M1062.66 4.88952L1063.46 4.81954C1063.19 4.79926 1062.92 4.82288 1062.66 4.88952Z" fill="#2C2A29"/>
<path d="M1065.14 4.67969L1063.46 4.8197C1064.02 4.86161 1064.59 4.81435 1065.14 4.67969Z" fill="#2C2A29"/>
<path d="M1042.06 4.7002L1041.83 4.90021C1041.88 4.88707 1041.92 4.86214 1041.96 4.82742C1042 4.7927 1042.04 4.74913 1042.06 4.7002Z" fill="#2C2A29"/>
<path d="M1036.04 4.74955C1037.89 4.95855 1039.76 5.06205 1041.64 5.05955L1041.83 4.89955C1040.89 5.17955 1037.41 4.40955 1036.04 4.74955Z" fill="#2C2A29"/>
<path d="M1010.97 2.23042L1015.97 2.40044C1015.09 2.18044 1013.97 1.89044 1016.22 1.84044C1009.88 1.18044 1017.54 2.32042 1010.97 2.23042Z" fill="#2C2A29"/>
<path d="M995.305 1.92047C998.015 1.82047 995.305 1.60047 995.415 1.48047C993.705 1.68047 993.285 1.73047 995.305 1.92047Z" fill="#2C2A29"/>
<path d="M882.375 1.92014L882.645 1.41016C880.565 1.48016 882.625 1.60014 882.375 1.92014Z" fill="#2C2A29"/>
<path d="M860.785 4.56016L862.825 4.88016L863.785 4.41016L860.785 4.56016Z" fill="#2C2A29"/>
<path d="M848.035 0.919609L848.945 0.849609L845.465 1.02961L848.035 0.919609Z" fill="#2C2A29"/>
<path d="M658.365 1.10049L658.995 1.73047C660.405 1.62047 660.705 0.910492 658.365 1.10049Z" fill="#2C2A29"/>
<path d="M576.485 1.74C574.98 1.34722 573.41 1.27568 571.875 1.53001C573.715 1.58001 575.555 1.82 576.485 1.74Z" fill="#2C2A29"/>
<path d="M330.925 0.719766L332.575 0.509766L329.465 0.679766L330.925 0.719766Z" fill="#2C2A29"/>
</svg>
