<svg width="1073" height="18" viewBox="0 0 1073 18" fill="none" xmlns="http://www.w3.org/2000/svg">
<path d="M0.5 17.5L16.5 1.5L32.5 17.5" stroke="white"/>
<path d="M32 17.5L48 1.5L64 17.5" stroke="white"/>
<path d="M63.5 17.5L79.5 1.5L95.5 17.5" stroke="white"/>
<path d="M95 17.5L111 1.5L127 17.5" stroke="white"/>
<path d="M126.5 17.5L142.5 1.5L158.5 17.5" stroke="white"/>
<path d="M158 17.5L174 1.5L190 17.5" stroke="white"/>
<path d="M189.5 17.5L205.5 1.5L221.5 17.5" stroke="white"/>
<path d="M221 17.5L237 1.5L253 17.5" stroke="white"/>
<path d="M252.5 17.5L268.5 1.5L284.5 17.5" stroke="white"/>
<path d="M284 17.5L300 1.5L316 17.5" stroke="white"/>
<path d="M315.5 17.5L331.5 1.5L347.5 17.5" stroke="white"/>
<path d="M347 17.5L363 1.5L379 17.5" stroke="white"/>
<path d="M378.5 17.5L394.5 1.5L410.5 17.5" stroke="white"/>
<path d="M410 17.5L426 1.5L442 17.5" stroke="white"/>
<path d="M441.5 17.5L457.5 1.5L473.5 17.5" stroke="white"/>
<path d="M473 17.5L489 1.5L505 17.5" stroke="white"/>
<path d="M504.5 17.5L520.5 1.5L536.5 17.5" stroke="white"/>
<path d="M536 17.5L552 1.5L568 17.5" stroke="white"/>
<path d="M567.5 17.5L583.5 1.5L599.5 17.5" stroke="white"/>
<path d="M599 17.5L615 1.5L631 17.5" stroke="white"/>
<path d="M630.5 17.5L646.5 1.5L662.5 17.5" stroke="white"/>
<path d="M662 17.5L678 1.5L694 17.5" stroke="white"/>
<path d="M693.5 17.5L709.5 1.5L725.5 17.5" stroke="white"/>
<path d="M725 17.5L741 1.5L757 17.5" stroke="white"/>
<path d="M756.5 17.5L772.5 1.5L788.5 17.5" stroke="white"/>
<path d="M788 17.5L804 1.5L820 17.5" stroke="white"/>
<path d="M819.5 17.5L835.5 1.5L851.5 17.5" stroke="white"/>
<path d="M851 17.5L867 1.5L883 17.5" stroke="white"/>
<path d="M882.5 17.5L898.5 1.5L914.5 17.5" stroke="white"/>
<path d="M914 17.5L930 1.5L946 17.5" stroke="white"/>
<path d="M945.5 17.5L961.5 1.5L977.5 17.5" stroke="white"/>
<path d="M977 17.5L993 1.5L1009 17.5" stroke="white"/>
<path d="M1008.5 17.5L1024.5 1.5L1040.5 17.5" stroke="white"/>
<path d="M1040 17.5L1056 1.5L1072 17.5" stroke="white"/>
</svg>
