<svg width="577" height="577" viewBox="0 0 577 577" fill="none" xmlns="http://www.w3.org/2000/svg">
<path d="M288.5 0L291.218 236.641L318.656 1.58044L296.624 237.209L348.483 6.30441L301.94 238.339L377.651 14.1202L307.11 240.019L405.844 24.9421L312.076 242.23L432.75 38.6517L316.783 244.948L458.076 55.0986L321.181 248.143L481.544 74.1027L325.22 251.78L502.897 95.4558L328.857 255.819L521.901 118.924L332.052 260.217L538.348 144.25L334.77 264.924L552.058 171.156L336.981 269.89L562.88 199.349L338.661 275.06L570.696 228.517L339.791 280.376L575.42 258.344L340.359 285.782L577 288.5L340.359 291.218L575.42 318.656L339.791 296.624L570.696 348.483L338.661 301.94L562.88 377.651L336.981 307.11L552.058 405.844L334.77 312.076L538.348 432.75L332.052 316.783L521.901 458.076L328.857 321.181L502.897 481.544L325.22 325.22L481.544 502.897L321.181 328.857L458.076 521.901L316.783 332.052L432.75 538.348L312.076 334.77L405.844 552.058L307.11 336.981L377.651 562.88L301.94 338.661L348.483 570.696L296.624 339.791L318.656 575.42L291.218 340.359L288.5 577L285.782 340.359L258.344 575.42L280.376 339.791L228.517 570.696L275.06 338.661L199.349 562.88L269.89 336.981L171.156 552.058L264.924 334.77L144.25 538.348L260.217 332.052L118.924 521.901L255.819 328.857L95.4558 502.897L251.78 325.22L74.1027 481.544L248.143 321.181L55.0986 458.076L244.948 316.783L38.6517 432.75L242.23 312.076L24.9421 405.844L240.019 307.11L14.1202 377.651L238.339 301.94L6.30441 348.483L237.209 296.624L1.58044 318.656L236.641 291.218L0 288.5L236.641 285.782L1.58044 258.344L237.209 280.376L6.30441 228.517L238.339 275.06L14.1202 199.349L240.019 269.89L24.9421 171.156L242.23 264.924L38.6517 144.25L244.948 260.217L55.0986 118.924L248.143 255.819L74.1027 95.4558L251.78 251.78L95.4558 74.1027L255.819 248.143L118.924 55.0986L260.217 244.948L144.25 38.6517L264.924 242.23L171.156 24.9421L269.89 240.019L199.349 14.1202L275.06 238.339L228.517 6.30441L280.376 237.209L258.344 1.58044L285.782 236.641L288.5 0Z" fill="#CEB091"/>
</svg>
