<svg width="182" height="182" viewBox="0 0 182 182" fill="none" xmlns="http://www.w3.org/2000/svg">
<g filter="url(#filter0_d_736_2)">
<path d="M78.8445 159.937C116.917 166.65 153.223 141.228 159.936 103.155C166.65 65.0829 141.228 28.7768 103.155 22.0636C65.0827 15.3503 28.7766 40.7721 22.0634 78.8447C15.3502 116.917 40.7719 153.223 78.8445 159.937Z" fill="#FE4023"/>
</g>
<path d="M112.208 36.8329L116.461 38.8339C117.047 39.0826 117.573 39.4531 118.004 39.9209C118.311 40.2665 118.534 40.6789 118.654 41.1254C118.749 41.5185 118.758 41.9274 118.68 42.3241C118.617 42.6841 118.507 43.0343 118.354 43.366C118.198 43.6886 118.004 43.9917 117.777 44.269C117.522 44.5938 117.201 44.8602 116.834 45.0504C116.412 45.2419 115.952 45.3326 115.489 45.3155C114.858 45.2815 114.241 45.1113 113.681 44.8167L111.107 43.6141L109.374 47.3174L107.684 46.5266L112.208 36.8329ZM111.756 42.1931L114.223 43.3579C114.42 43.4501 114.628 43.5156 114.843 43.5525C115.067 43.591 115.296 43.5864 115.518 43.5389C115.75 43.4952 115.967 43.3932 116.148 43.2425C116.372 43.0575 116.55 42.8227 116.667 42.5569C116.8 42.2915 116.879 42.0031 116.902 41.7074C116.911 41.4766 116.864 41.247 116.764 41.0387C116.666 40.8483 116.527 40.6816 116.358 40.55C116.171 40.4019 115.967 40.2768 115.751 40.1775L113.247 39.0062L111.756 42.1931Z" fill="black"/>
<path d="M122.49 42.1059L128.673 46.6553L127.714 47.9552L123.04 44.5247L121.383 46.7725L125.722 49.9543L124.823 51.1795L120.477 47.987L118.63 50.5046L123.396 54.008L122.437 55.3079L116.17 50.6963L122.49 42.1059Z" fill="black"/>
<path d="M131.15 48.8926L134.579 52.6628C135.264 53.3158 135.694 54.1912 135.793 55.1324C135.794 55.5286 135.708 55.9201 135.54 56.2789C135.372 56.6377 135.126 56.9547 134.821 57.207C134.514 57.5046 134.151 57.7372 133.752 57.8906C133.439 57.9994 133.109 58.0534 132.776 58.0502C132.529 58.0505 132.283 58.0072 132.05 57.9222C131.906 57.8672 131.765 57.8012 131.63 57.7249C131.731 57.8727 131.811 58.0334 131.868 58.2028C131.929 58.4094 131.952 58.6254 131.936 58.8402C131.904 59.1041 131.823 59.3598 131.699 59.5945C131.522 59.907 131.293 60.1872 131.022 60.4229C130.596 60.805 130.204 61.2245 129.853 61.6763C129.591 61.9799 129.415 62.348 129.343 62.7426L127.993 61.263C128.068 61.0023 128.205 60.7633 128.39 60.5655C128.578 60.3616 128.773 60.1686 128.965 59.9939C129.282 59.714 129.574 59.4071 129.838 59.0768C130.048 58.8237 130.197 58.5259 130.275 58.2063C130.343 57.9325 130.324 57.6446 130.222 57.3818C130.08 57.0513 129.88 56.7494 129.63 56.4908L127.765 54.4939L124.515 57.4464L123.262 56.0597L131.15 48.8926ZM128.814 53.5416L130.88 55.8013C131.028 56.0055 131.216 56.1775 131.433 56.3069C131.649 56.4363 131.89 56.5205 132.14 56.5543C132.374 56.5661 132.607 56.5268 132.824 56.439C133.041 56.3511 133.236 56.217 133.395 56.0459C133.61 55.8621 133.783 55.6339 133.902 55.377C133.999 55.1774 134.038 54.9545 134.015 54.7336C133.988 54.5208 133.914 54.3166 133.798 54.1362C133.671 53.9406 133.529 53.7541 133.375 53.5783L131.337 51.3235L128.814 53.5416Z" fill="black"/>
<path d="M133.497 62.8309C133.183 63.0104 132.913 63.2574 132.706 63.5539C132.525 63.8188 132.416 64.1259 132.388 64.4455C132.356 64.7701 132.389 65.0978 132.483 65.41C132.576 65.7674 132.717 66.1108 132.9 66.4313C133.077 66.7386 133.3 67.0174 133.56 67.2584C133.759 67.4353 133.988 67.5751 134.236 67.6714C134.432 67.7585 134.647 67.7964 134.861 67.7816C135.064 67.7581 135.259 67.6925 135.435 67.589C135.729 67.444 135.956 67.1927 136.071 66.8861C136.138 66.6483 136.153 66.3987 136.114 66.1545C136.023 65.7025 135.909 65.2553 135.773 64.8148C135.622 64.3239 135.447 63.7054 135.243 62.9777C135.115 62.582 135.054 62.1675 135.062 61.7515C135.059 61.4378 135.114 61.1263 135.224 60.8324C135.326 60.5653 135.482 60.3219 135.682 60.117C135.875 59.9159 136.094 59.741 136.332 59.5968C136.743 59.3336 137.218 59.1879 137.705 59.1754C138.149 59.1497 138.593 59.2279 139.001 59.4039C139.424 59.5992 139.81 59.866 140.142 60.1926C140.484 60.5204 140.781 60.8915 141.027 61.2965C141.304 61.7527 141.514 62.2461 141.65 62.7616C141.772 63.2346 141.807 63.7256 141.755 64.2111C141.696 64.696 141.524 65.1603 141.253 65.5668C140.982 65.9733 140.62 66.3107 140.195 66.5519L139.236 64.9517C139.482 64.8142 139.691 64.6199 139.846 64.3851C140.001 64.1503 140.098 63.8818 140.128 63.602C140.143 63.0372 139.987 62.481 139.68 62.0066C139.563 61.817 139.429 61.6381 139.281 61.4719C139.134 61.3025 138.961 61.157 138.769 61.0406C138.583 60.931 138.373 60.868 138.157 60.8568C137.921 60.8438 137.686 60.909 137.49 61.0424C137.343 61.1165 137.214 61.2221 137.113 61.3516C137.011 61.4811 136.939 61.6314 136.903 61.7918C136.838 62.1386 136.856 62.4958 136.956 62.8342L137.091 63.3035C137.167 63.5727 137.245 63.8803 137.346 64.2204L137.625 65.2174L137.826 65.9067C137.895 66.188 137.927 66.4772 137.921 66.7669C137.894 67.0795 137.817 67.3859 137.694 67.6747C137.575 67.9456 137.413 68.1955 137.213 68.4144C136.658 69.0032 135.897 69.3546 135.088 69.3949C134.616 69.4239 134.143 69.3406 133.709 69.1518C133.258 68.9405 132.85 68.6468 132.507 68.2858C132.139 67.9157 131.817 67.5026 131.549 67.0554C131.259 66.5543 131.035 66.0179 130.882 65.4594C130.739 64.9568 130.696 64.4307 130.757 63.9115C130.822 63.4002 131.003 62.9102 131.285 62.4787C131.619 61.9906 132.056 61.5823 132.566 61.2831L133.497 62.8309Z" fill="black"/>
<path d="M146.223 72.3059C146.471 73.0008 146.564 73.742 146.494 74.4767C146.418 75.1493 146.204 75.799 145.864 76.3842C145.503 76.9817 145.035 77.5065 144.482 77.9318C143.9 78.3719 143.25 78.715 142.559 78.948C141.862 79.1918 141.129 79.3156 140.39 79.3143C139.703 79.3261 139.019 79.2056 138.377 78.9594C137.736 78.7066 137.158 78.3167 136.683 77.8172C136.193 77.2725 135.818 76.6343 135.58 75.941C135.342 75.2476 135.247 74.5134 135.3 73.7824C135.369 73.1092 135.581 72.4584 135.921 71.8732C136.275 71.2849 136.735 70.7682 137.28 70.35C138.461 69.4636 139.895 68.9791 141.371 68.9675C142.059 68.9557 142.742 69.0762 143.384 69.3224C144.048 69.5795 144.647 69.9804 145.138 70.4962C145.628 71.012 145.999 71.63 146.223 72.3059ZM144.782 72.7911C144.641 72.3259 144.385 71.9039 144.037 71.5642C143.689 71.2245 143.261 70.9782 142.793 70.8482C142.33 70.7272 141.85 70.6874 141.373 70.7306C140.871 70.7645 140.375 70.8652 139.899 71.0298C139.421 71.19 138.966 71.4089 138.542 71.6815C138.14 71.9445 137.784 72.2725 137.49 72.6521C137.21 73.019 137.021 73.4468 136.938 73.9006C136.863 74.4071 136.915 74.9244 137.09 75.4058C137.23 75.871 137.487 76.293 137.834 76.6327C138.182 76.9724 138.61 77.2186 139.078 77.3487C139.544 77.4699 140.028 77.5102 140.507 77.4679C141.514 77.3893 142.485 77.0585 143.331 76.5062C143.738 76.2545 144.095 75.9284 144.381 75.5448C144.661 75.1779 144.85 74.7501 144.933 74.2963C145.004 73.7955 144.951 73.285 144.778 72.8095L144.782 72.7911Z" fill="black"/>
<path d="M148.273 80.6181L148.482 82.5504L141.181 88.21L148.993 87.3887L149.175 89.155L138.554 90.2676L138.345 88.3353L145.633 82.6924L145.641 82.6465L137.816 83.4845L137.635 81.7182L148.273 80.6181Z" fill="black"/>
<path d="M148.88 95.9844L148.675 97.9573L137.583 100.93L137.792 98.9385L140.702 98.2385L141.145 94.0045L138.45 92.7332L138.646 90.8154L148.88 95.9844ZM142.482 94.6477L142.148 97.8868L146.865 96.8232L142.482 94.6477Z" fill="black"/>
<path d="M147.54 104.448L147.014 106.25L138.328 103.695L136.795 108.893L135.256 108.432L137.313 101.441L147.54 104.448Z" fill="black"/>
<path d="M144.493 113.559L143.737 115.264L133.983 110.976L134.739 109.214L144.493 113.559Z" fill="black"/>
<path d="M142.491 118.086L138.249 124.996L137.044 124.252L133.792 114.96L130.457 120.381L129.094 119.515L133.667 112.066L134.967 112.864L138.078 122.094L141.083 117.203L142.491 118.086Z" fill="black"/>
<path d="M136.295 127.476L131.117 133.14L129.926 132.049L133.847 127.764L131.781 125.884L128.153 129.85L127.036 128.819L130.655 124.851L128.353 122.749L124.361 127.115L123.169 126.024L128.413 120.314L136.295 127.476Z" fill="black"/>
<path d="M121.303 140.802L118.977 141.955L112.681 135.737L113.759 144.456L111.425 145.599L106.768 136.002L108.363 135.231L111.958 142.632L111.017 133.937L112.411 133.235L118.659 139.35L115.047 131.993L116.644 131.213L121.303 140.802Z" fill="black"/>
<path d="M107.404 146.795L99.9219 148.49L99.5654 146.91L105.224 145.615L104.591 142.916L99.3476 144.114L99.0192 142.644L104.252 141.453L103.558 138.402L97.7991 139.728L97.4318 138.156L105.018 136.414L107.404 146.795Z" fill="black"/>
<path d="M88.5089 143.719C88.4752 144.073 88.3696 144.415 88.1987 144.726C88.0377 145.03 87.8164 145.297 87.5484 145.512C87.2854 145.73 86.9827 145.896 86.6569 145.999C86.3166 146.101 85.9597 146.134 85.6064 146.098C85.2493 146.069 84.9027 145.962 84.5904 145.786C84.274 145.625 83.9912 145.405 83.7572 145.137C83.5331 144.867 83.3645 144.555 83.261 144.22C83.1575 143.885 83.1212 143.532 83.1541 143.183C83.1878 142.83 83.2934 142.487 83.4643 142.176C83.6316 141.859 83.8583 141.577 84.1319 141.346C84.3978 141.127 84.7037 140.962 85.0326 140.86C85.3719 140.751 85.7303 140.714 86.0847 140.752C86.4418 140.782 86.7883 140.888 87.1006 141.064C87.4201 141.224 87.7032 141.448 87.9323 141.722C88.1471 141.992 88.3083 142.3 88.4071 142.631C88.5219 142.981 88.5566 143.353 88.5089 143.719Z" fill="black"/>
<path d="M70.5731 145.466L66.2935 143.507C65.7059 143.267 65.1755 142.905 64.7368 142.446C64.4174 142.109 64.1871 141.697 64.0667 141.248C63.9666 140.855 63.9548 140.445 64.0319 140.047C64.1439 139.328 64.4464 138.652 64.9081 138.088C65.1582 137.762 65.4771 137.495 65.8422 137.305C66.2578 137.098 66.7186 136.997 67.183 137.011C67.8128 137.044 68.4293 137.204 68.9954 137.482L71.5762 138.648L73.2652 134.928L74.9598 135.691L70.5731 145.466ZM70.9503 140.102L68.4582 138.97C68.2587 138.885 68.0503 138.823 67.837 138.785C67.6146 138.755 67.3888 138.763 67.1692 138.809C66.9362 138.856 66.7188 138.961 66.5372 139.115C66.3148 139.303 66.1423 139.542 66.0351 139.813C65.9018 140.075 65.8253 140.362 65.8108 140.655C65.8031 140.887 65.8537 141.118 65.958 141.325C66.0575 141.518 66.1997 141.686 66.3738 141.816C66.5615 141.959 66.7667 142.078 66.9843 142.17L69.4947 143.304L70.9503 140.102Z" fill="black"/>
<path d="M60.2341 140.354L53.9878 135.898L54.884 134.577L59.6153 137.951L61.2386 135.679L56.8609 132.556L57.7442 131.31L62.1219 134.432L63.9317 131.908L59.1149 128.481L60.0479 127.167L66.3873 131.687L60.2341 140.354Z" fill="black"/>
<path d="M51.4506 133.678L47.9746 129.957C47.2762 129.318 46.8307 128.449 46.7194 127.508C46.7129 127.11 46.7945 126.716 46.9584 126.353C47.1223 125.99 47.3644 125.669 47.6675 125.41C47.9742 125.11 48.338 124.875 48.7373 124.718C49.0505 124.604 49.3816 124.547 49.7148 124.549C49.9594 124.549 50.2021 124.591 50.4318 124.675C50.5787 124.723 50.7201 124.786 50.8535 124.863C50.7505 124.717 50.6703 124.556 50.6156 124.386C50.5465 124.18 50.5204 123.962 50.5387 123.746C50.5673 123.486 50.6441 123.232 50.7651 123C50.9332 122.685 51.1562 122.404 51.4235 122.168C51.8503 121.779 52.2424 121.353 52.5955 120.896C52.8557 120.592 53.0289 120.223 53.0966 119.828L54.4593 121.291C54.384 121.551 54.2512 121.79 54.0706 121.99C53.883 122.194 53.6971 122.389 53.5052 122.564C53.1974 122.852 52.9114 123.163 52.6494 123.493C52.4452 123.749 52.299 124.047 52.2208 124.365C52.1599 124.642 52.185 124.931 52.2928 125.193C52.4354 125.521 52.6364 125.819 52.8861 126.075L54.7684 128.084L57.9714 125.076L59.246 126.447L51.4506 133.678ZM53.7212 128.97L51.6372 126.708C51.3252 126.327 50.8828 126.077 50.3963 126.005C50.1627 126.001 49.9308 126.046 49.7165 126.139C49.5022 126.232 49.3105 126.371 49.1544 126.545C48.937 126.726 48.7638 126.955 48.6479 127.213C48.5555 127.411 48.5169 127.63 48.5361 127.848C48.5674 128.063 48.6479 128.269 48.7714 128.448C48.8951 128.647 49.0405 128.832 49.2051 128.999L51.2696 131.211L53.7212 128.97Z" fill="black"/>
<path d="M48.9081 119.772C49.2199 119.592 49.4872 119.345 49.6898 119.047C49.8648 118.78 49.9681 118.472 49.9898 118.153C50.02 117.828 49.9877 117.5 49.8945 117.188C49.7857 116.851 49.6356 116.528 49.4478 116.228C49.2702 115.92 49.0437 115.643 48.7772 115.408C48.5776 115.234 48.3481 115.097 48.0997 115.005C47.9005 114.916 47.6828 114.878 47.4655 114.893C47.2639 114.925 47.0708 114.998 46.8973 115.105C46.6075 115.253 46.3838 115.505 46.2708 115.81C46.2031 116.049 46.1944 116.301 46.2454 116.545C46.3348 116.996 46.4526 117.441 46.5981 117.877C46.7583 118.366 46.9443 118.977 47.1564 119.71C47.2867 120.103 47.3548 120.515 47.3582 120.93C47.3592 121.243 47.3043 121.555 47.1961 121.849C47.0935 122.114 46.9412 122.358 46.7475 122.566C46.5596 122.773 46.343 122.952 46.1042 123.097C45.6947 123.36 45.2236 123.513 44.7374 123.538C44.2938 123.559 43.8511 123.481 43.4414 123.31C43.0182 123.125 42.6306 122.867 42.2962 122.549C41.9457 122.223 41.6415 121.85 41.392 121.442C41.1094 120.991 40.8923 120.503 40.7474 119.992C40.6157 119.519 40.574 119.026 40.6244 118.539C40.6718 118.073 40.8223 117.624 41.0649 117.223C41.34 116.793 41.7117 116.434 42.1504 116.173L43.1206 117.766C42.8805 117.911 42.6774 118.109 42.5271 118.346C42.3768 118.582 42.2835 118.851 42.2546 119.13C42.2491 119.692 42.4129 120.242 42.7247 120.71C42.8475 120.898 42.9838 121.077 43.1324 121.246C43.2827 121.413 43.4598 121.553 43.6564 121.661C43.8395 121.77 44.0464 121.832 44.2592 121.843C44.4998 121.849 44.7364 121.781 44.9377 121.65C45.081 121.57 45.2058 121.461 45.3041 121.33C45.4024 121.198 45.4719 121.048 45.508 120.888C45.5656 120.541 45.5405 120.186 45.4349 119.851C45.4349 119.851 45.3846 119.653 45.2997 119.382C45.2148 119.111 45.1363 118.804 45.0335 118.473L44.736 117.473L44.5245 116.791C44.4459 116.476 44.4138 116.151 44.4293 115.826C44.4452 115.513 44.5156 115.205 44.6373 114.915C44.8717 114.382 45.2615 113.932 45.7557 113.625C46.2001 113.331 46.7141 113.16 47.2457 113.129C47.7241 113.104 48.2018 113.189 48.6429 113.375C49.0952 113.584 49.5067 113.871 49.8579 114.225C50.6529 115.061 51.2193 116.088 51.5024 117.206C51.6541 117.708 51.7029 118.236 51.6459 118.757C51.5914 119.269 51.417 119.761 51.1368 120.193C50.8136 120.685 50.3845 121.098 49.881 121.403L48.9081 119.772Z" fill="black"/>
<path d="M36.0477 110.473C35.7934 109.778 35.6946 109.036 35.7582 108.299C35.8204 107.626 36.0259 106.974 36.3608 106.386C36.7026 105.79 37.1554 105.265 37.6949 104.84C38.8541 103.937 40.2722 103.43 41.741 103.392C42.4285 103.381 43.1119 103.501 43.754 103.747C44.3941 103.992 44.9736 104.372 45.4529 104.862C45.9576 105.401 46.3458 106.039 46.5932 106.735C46.8406 107.43 46.9421 108.17 46.8911 108.907C46.8316 109.583 46.6288 110.238 46.2961 110.83C45.9493 111.421 45.4941 111.942 44.9544 112.365C44.3764 112.823 43.7271 113.182 43.0325 113.429C42.3453 113.678 41.6206 113.807 40.8899 113.81C40.2024 113.821 39.519 113.701 38.8769 113.455C38.2371 113.213 37.657 112.836 37.1764 112.349C36.6684 111.813 36.2833 111.173 36.0477 110.473ZM37.4842 109.958C37.6425 110.446 37.9244 110.884 38.3024 111.23C38.6451 111.541 39.0579 111.763 39.5055 111.879C39.9713 111.989 40.4519 112.022 40.9285 111.978C41.4291 111.931 41.9222 111.824 42.3969 111.659C42.8786 111.484 43.335 111.245 43.7539 110.95C44.1506 110.686 44.5002 110.356 44.7881 109.976C45.063 109.604 45.2435 109.171 45.314 108.714C45.3908 108.209 45.3348 107.693 45.1515 107.216C44.9932 106.729 44.7114 106.29 44.3333 105.944C43.9906 105.635 43.5767 105.416 43.1287 105.305C42.6647 105.187 42.1837 105.15 41.7072 105.197C41.2067 105.243 40.7136 105.351 40.2388 105.516C39.7571 105.691 39.3008 105.929 38.8819 106.224C38.4851 106.489 38.1356 106.818 37.8477 107.198C37.5727 107.57 37.3923 108.004 37.3218 108.461C37.2349 108.977 37.2888 109.507 37.4777 109.995L37.4842 109.958Z" fill="black"/>
<path d="M33.8759 102.204L33.6393 100.267L40.8672 94.4807L33.1202 95.4177L32.9096 93.6557L43.4924 92.3847L43.7289 94.3219L36.5183 100.064L44.2654 99.1267L44.476 100.889L33.8759 102.204Z" fill="black"/>
<path d="M33.1005 86.8755L33.3154 84.9042L44.2948 81.7603L44.1134 83.7565L41.2139 84.5057L40.8009 88.783L43.519 90.0299L43.3506 91.9525L33.1005 86.8755ZM39.4416 88.1073L39.7298 84.8601L35.0094 86.0464L39.4416 88.1073Z" fill="black"/>
<path d="M34.2715 78.353L34.7795 76.5471L43.4873 79.0302L44.9479 73.8099L46.5013 74.2449L44.5343 81.2619L34.2715 78.353Z" fill="black"/>
<path d="M37.1864 69.2386L37.9161 67.5192L47.733 71.6669L47.0033 73.3863L37.1864 69.2386Z" fill="black"/>
<path d="M39.1308 64.6618L43.2686 57.6958L44.4955 58.4239L47.8705 67.6623L51.1321 62.172L52.5131 62.9936L48.0526 70.4997L46.7402 69.7186L43.4506 60.5332L40.5285 65.4958L39.1308 64.6618Z" fill="black"/>
<path d="M45.1902 55.1821L50.2863 49.4466L51.4899 50.5213L47.6345 54.8644L49.7239 56.7208L53.2771 52.6939L54.4262 53.7021L50.873 57.7289L53.2089 59.7994L57.1341 55.3832L58.3394 56.4487L53.172 62.2664L45.1902 55.1821Z" fill="black"/>
<path d="M59.9728 41.6488L62.3256 40.4525L68.702 46.5904L67.5043 37.8496L69.823 36.6852L74.6271 46.204L73.0668 46.9904L69.3596 39.6362L70.4194 48.3527L69.0213 49.0255L62.6806 43.0077L66.3804 50.351L64.7985 51.1525L59.9728 41.6488Z" fill="black"/>
<path d="M73.7936 35.4526L81.2145 33.6241L81.6019 35.1898L75.9559 36.5731L76.6148 39.286L81.8348 38.0077L82.1999 39.4842L77.0167 40.769L77.7525 43.7988L83.4601 42.3885L83.8458 43.9634L76.2897 45.806L73.7936 35.4526Z" fill="black"/>
<path d="M92.7227 38.2312C92.7488 37.8826 92.845 37.543 93.0056 37.2325C93.1662 36.9221 93.3879 36.6473 93.6573 36.4247C93.9168 36.2029 94.2171 36.0337 94.5412 35.9266C94.8814 35.8191 95.2394 35.7792 95.595 35.8091C95.9509 35.8375 96.2976 35.9373 96.6142 36.1026C96.9329 36.2604 97.2164 36.4813 97.4474 36.7518C97.6749 37.0094 97.8475 37.3108 97.9547 37.6373C98.0637 37.9772 98.1036 38.3355 98.0721 38.6911C98.0483 39.0479 97.9482 39.3954 97.7787 39.7103C97.6153 40.0255 97.3952 40.308 97.1295 40.5435C96.8629 40.7673 96.5561 40.9384 96.2256 41.0475C95.8889 41.1571 95.5337 41.1976 95.181 41.1666C94.8223 41.1292 94.4742 41.0227 94.1559 40.8532C93.5446 40.5212 93.0828 39.9687 92.8645 39.3082C92.7474 38.9619 92.6993 38.596 92.7227 38.2312Z" fill="black"/>
<path d="M111.643 91.5936L81.9356 86.3554L85.9501 63.588C86.1698 62.3137 85.8769 61.0042 85.1352 59.945C84.3935 58.8857 83.2631 58.1626 81.9905 57.9332L81.4942 57.8457C80.2196 57.6234 78.9088 57.9153 77.8489 58.6575C76.7891 59.3996 76.0665 60.5315 75.8394 61.8052L69.3646 98.5254C68.5479 103.815 69.836 109.215 72.9529 113.567C76.0697 117.918 80.7673 120.876 86.0387 121.805C91.3102 122.735 96.736 121.562 101.153 118.539C105.571 115.516 108.628 110.883 109.67 105.632L112.041 92.185C112.057 92.055 112.026 91.9233 111.953 91.8146C111.88 91.7058 111.769 91.6273 111.643 91.5936Z" fill="#FE4023" stroke="black" stroke-width="2" stroke-miterlimit="10"/>
<path d="M98.0393 83.6039L97.8004 83.5617C95.0744 83.0811 92.4748 84.9013 91.9942 87.6273L90.1093 98.317C89.6286 101.043 91.4488 103.643 94.1748 104.123L94.4138 104.165C97.1398 104.646 99.7393 102.826 100.22 100.1L102.105 89.41C102.586 86.684 100.765 84.0845 98.0393 83.6039Z" fill="#FE4023" stroke="black" stroke-width="2" stroke-miterlimit="10"/>
<path d="M108.15 85.3871L107.911 85.3449C105.185 84.8643 102.585 86.6845 102.105 89.4105L100.22 100.1C99.7392 102.826 101.559 105.426 104.285 105.906L104.524 105.949C107.25 106.429 109.85 104.609 110.331 101.883L112.215 91.1932C112.696 88.4672 110.876 85.8677 108.15 85.3871Z" fill="#FE4023" stroke="black" stroke-width="2" stroke-miterlimit="10"/>
<path d="M92.6378 83.9778C93.1301 81.1858 91.2658 78.5233 88.4738 78.031C85.6818 77.5387 83.0194 79.403 82.5271 82.195L80.0198 96.4143C79.5275 99.2063 81.3918 101.869 84.1838 102.361C86.9758 102.853 89.6382 100.989 90.1305 98.1971L92.6378 83.9778Z" fill="#FE4023" stroke="black" stroke-width="2" stroke-miterlimit="10"/>
<path d="M72.2726 95.4172L81.1494 89.2015C82.2545 88.4944 83.5942 88.2524 84.8768 88.5283C86.1594 88.8041 87.2811 89.5755 87.9977 90.6744C88.7853 91.7237 89.1265 93.0416 88.947 94.3412C88.7675 95.6408 88.082 96.8169 87.0395 97.6135L78.2102 103.828" fill="#FE4023"/>
<path d="M72.2726 95.4172L81.1494 89.2015C82.2545 88.4944 83.5941 88.2524 84.8768 88.5283C86.1594 88.8041 87.2811 89.5755 87.9977 90.6744V90.6744C88.7853 91.7237 89.1265 93.0416 88.947 94.3412C88.7675 95.6408 88.082 96.8169 87.0395 97.6135L78.2102 103.828" stroke="black" stroke-width="2" stroke-miterlimit="10"/>
<defs>
<filter id="filter0_d_736_2" x="0.988281" y="0.988281" width="180.023" height="180.023" filterUnits="userSpaceOnUse" color-interpolation-filters="sRGB">
<feFlood flood-opacity="0" result="BackgroundImageFix"/>
<feColorMatrix in="SourceAlpha" type="matrix" values="0 0 0 0 0 0 0 0 0 0 0 0 0 0 0 0 0 0 127 0" result="hardAlpha"/>
<feOffset/>
<feGaussianBlur stdDeviation="10"/>
<feComposite in2="hardAlpha" operator="out"/>
<feColorMatrix type="matrix" values="0 0 0 0 0 0 0 0 0 0 0 0 0 0 0 0 0 0 0.2 0"/>
<feBlend mode="normal" in2="BackgroundImageFix" result="effect1_dropShadow_736_2"/>
<feBlend mode="normal" in="SourceGraphic" in2="effect1_dropShadow_736_2" result="shape"/>
</filter>
</defs>
</svg>
