<svg width="92" height="80" viewBox="0 0 92 80" fill="none" xmlns="http://www.w3.org/2000/svg">
<g clip-path="url(#clip0_567_77)">
<path d="M45.9064 19.0646C53.4352 19.0813 60.836 21.0133 67.4124 24.6787C73.9887 28.344 79.5245 33.6223 83.4986 40.0169C79.5361 46.4219 74.0029 51.7082 67.4238 55.3744C60.8447 59.0405 53.438 60.9649 45.9064 60.9649C38.3747 60.9649 30.968 59.0405 24.3889 55.3744C17.8099 51.7082 12.2766 46.4219 8.31412 40.0169C12.2883 33.6223 17.824 28.344 24.4003 24.6787C30.9767 21.0133 38.3775 19.0813 45.9064 19.0646V19.0646ZM45.9064 16.7646C37.7467 16.7656 29.7312 18.915 22.6659 22.9968C15.6005 27.0785 9.7345 32.9487 5.65771 40.0169C9.74273 47.0745 15.6118 52.934 22.6761 57.0074C29.7404 61.0809 37.7517 63.2252 45.9064 63.2252C54.061 63.2252 62.0723 61.0809 69.1366 57.0074C76.201 52.934 82.07 47.0745 86.155 40.0169C82.0782 32.9487 76.2122 27.0785 69.1469 22.9968C62.0815 18.915 54.066 16.7656 45.9064 16.7646V16.7646Z" fill="black"/>
<path d="M45.9064 54.8899C54.1246 54.8899 60.7869 48.2277 60.7869 40.0094C60.7869 31.7911 54.1246 25.1289 45.9064 25.1289C37.6881 25.1289 31.0259 31.7911 31.0259 40.0094C31.0259 48.2277 37.6881 54.8899 45.9064 54.8899Z" fill="black"/>
<path d="M45.9062 11.8676V0" stroke="black" stroke-width="2" stroke-miterlimit="10"/>
<path d="M32.4747 13.6274L29.4043 2.17383" stroke="black" stroke-width="2" stroke-miterlimit="10"/>
<path d="M19.9519 18.8131L14.0181 8.54395" stroke="black" stroke-width="2" stroke-miterlimit="10"/>
<path d="M9.19962 27.0685L0.816406 18.6738" stroke="black" stroke-width="2" stroke-miterlimit="10"/>
<path d="M59.3496 13.6274L62.42 2.17383" stroke="black" stroke-width="2" stroke-miterlimit="10"/>
<path d="M71.8726 18.8131L77.7949 8.54395" stroke="black" stroke-width="2" stroke-miterlimit="10"/>
<path d="M82.6245 27.0685L91.0077 18.6738" stroke="black" stroke-width="2" stroke-miterlimit="10"/>
</g>
<circle cx="45.7496" cy="75.6491" r="4.3512" fill="black"/>
<circle cx="64.1491" cy="71.0485" r="4.3512" fill="black"/>
<circle cx="27.3502" cy="71.0485" r="4.3512" fill="black"/>
<defs>
<clipPath id="clip0_567_77">
<rect width="91.8244" height="63.2594" fill="white"/>
</clipPath>
</defs>
</svg>
