<svg width="97" height="80" viewBox="0 0 97 80" fill="none" xmlns="http://www.w3.org/2000/svg">
<path d="M48.5273 12.5091V0" stroke="white" stroke-width="2" stroke-miterlimit="10"/>
<path d="M9.83636 28.5311C9.83636 28.5311 6.20005 27.8786 3.77581 25.4544C1.35156 23.0302 1 19.6826 1 19.6826" stroke="white" stroke-width="2" stroke-miterlimit="10"/>
<path d="M86.2 28.5311C86.2 28.5311 89.8363 27.8786 92.2606 25.4544C94.6848 23.0302 95.0364 19.6826 95.0364 19.6826" stroke="white" stroke-width="2" stroke-miterlimit="10"/>
<path d="M22.0707 19.1328C22.0707 19.1328 18.683 17.659 16.8834 14.7409C15.0839 11.8227 15.5142 8.48438 15.5142 8.48438" stroke="white" stroke-width="2" stroke-miterlimit="10"/>
<path d="M74.9081 19.1328C74.9081 19.1328 78.2958 17.659 80.0953 14.7409C81.8948 11.8227 81.4646 8.48438 81.4646 8.48438" stroke="white" stroke-width="2" stroke-miterlimit="10"/>
<path d="M34.8853 13.8066C34.8853 13.8066 32.6414 11.2001 31.7908 7.87888C30.9401 4.55769 31.7908 1.69043 31.7908 1.69043" stroke="white" stroke-width="2" stroke-miterlimit="10"/>
<path d="M61.6179 13.8066C61.6179 13.8066 63.8617 11.2001 64.7124 7.87888C65.5631 4.55769 64.7124 1.69043 64.7124 1.69043" stroke="white" stroke-width="2" stroke-miterlimit="10"/>
<path d="M48.5273 11.6094C39.9266 11.6104 31.4778 13.876 24.0305 18.1784C16.5833 22.4808 10.4002 28.6682 6.10303 36.1185C10.4089 43.5576 16.5951 49.7338 24.0413 54.0274C31.4875 58.3211 39.9318 60.5813 48.5273 60.5813C57.1227 60.5813 65.567 58.3211 73.0132 54.0274C80.4594 49.7338 86.6457 43.5576 90.9515 36.1185C86.6544 28.6682 80.4713 22.4808 73.024 18.1784C65.5768 13.876 57.128 11.6104 48.5273 11.6094Z" fill="white"/>
<path d="M48.5274 51.7955C57.1899 51.7955 64.2122 44.7731 64.2122 36.1106C64.2122 27.4481 57.1899 20.4258 48.5274 20.4258C39.8649 20.4258 32.8425 27.4481 32.8425 36.1106C32.8425 44.7731 39.8649 51.7955 48.5274 51.7955Z" fill="#1D11D6"/>
<path d="M48.6242 80L42.3259 69.0909L54.9226 69.0909L48.6242 80Z" fill="#CBFA12"/>
<path d="M70.5057 74.713L60.8561 66.616L72.6931 62.3076L70.5057 74.713Z" fill="#CBFA12"/>
<path d="M25.594 74.1771L25.594 61.5804L36.5031 67.8787L25.594 74.1771Z" fill="#CBFA12"/>
</svg>
