<svg width="97" height="80" viewBox="0 0 97 80" fill="none" xmlns="http://www.w3.org/2000/svg">
<path d="M48.5273 12.5091V0" stroke="black" stroke-width="2" stroke-miterlimit="10"/>
<path d="M9.83636 28.5311C9.83636 28.5311 6.20005 27.8786 3.77581 25.4544C1.35156 23.0302 1 19.6826 1 19.6826" stroke="black" stroke-width="2" stroke-miterlimit="10"/>
<path d="M86.2001 28.5311C86.2001 28.5311 89.8364 27.8786 92.2606 25.4544C94.6849 23.0302 95.0364 19.6826 95.0364 19.6826" stroke="black" stroke-width="2" stroke-miterlimit="10"/>
<path d="M22.0707 19.1328C22.0707 19.1328 18.683 17.659 16.8835 14.7409C15.084 11.8227 15.5142 8.48438 15.5142 8.48438" stroke="black" stroke-width="2" stroke-miterlimit="10"/>
<path d="M74.9082 19.1328C74.9082 19.1328 78.2959 17.659 80.0954 14.7409C81.8949 11.8227 81.4647 8.48438 81.4647 8.48438" stroke="black" stroke-width="2" stroke-miterlimit="10"/>
<path d="M34.8852 13.8066C34.8852 13.8066 32.6413 11.2001 31.7907 7.87888C30.94 4.55769 31.7907 1.69043 31.7907 1.69043" stroke="black" stroke-width="2" stroke-miterlimit="10"/>
<path d="M61.6179 13.8066C61.6179 13.8066 63.8617 11.2001 64.7123 7.87888C65.563 4.55769 64.7123 1.69043 64.7123 1.69043" stroke="black" stroke-width="2" stroke-miterlimit="10"/>
<path d="M48.5274 11.6094C39.9267 11.6104 31.4779 13.876 24.0306 18.1784C16.5834 22.4808 10.4003 28.6682 6.10312 36.1185C10.4089 43.5576 16.5952 49.7338 24.0414 54.0274C31.4876 58.3211 39.9319 60.5813 48.5274 60.5813C57.1228 60.5813 65.5671 58.3211 73.0133 54.0274C80.4595 49.7338 86.6458 43.5576 90.9516 36.1185C86.6545 28.6682 80.4713 22.4808 73.0241 18.1784C65.5769 13.876 57.1281 11.6104 48.5274 11.6094Z" fill="white"/>
<path d="M48.5273 51.7955C57.1898 51.7955 64.2121 44.7731 64.2121 36.1106C64.2121 27.4481 57.1898 20.4258 48.5273 20.4258C39.8648 20.4258 32.8424 27.4481 32.8424 36.1106C32.8424 44.7731 39.8648 51.7955 48.5273 51.7955Z" fill="#5B45E1"/>
<path d="M48.6243 80L42.3259 69.0909L54.9227 69.0909L48.6243 80Z" fill="#FF6818"/>
<path d="M70.5057 74.713L60.856 66.616L72.6931 62.3076L70.5057 74.713Z" fill="#FF6818"/>
<path d="M25.594 74.1771L25.594 61.5804L36.5031 67.8787L25.594 74.1771Z" fill="#FF6818"/>
</svg>
