<svg width="1190" height="164" viewBox="0 0 1190 164" fill="none" xmlns="http://www.w3.org/2000/svg">
<line y1="-1" x2="471.39" y2="-1" transform="matrix(-0.938854 0.344315 -0.995868 0.0908136 310.567 1)" stroke="#FF6818" stroke-width="2"/>
<line y1="-1" x2="471.39" y2="-1" transform="matrix(-0.938854 0.344315 -0.995868 0.0908136 329.592 1)" stroke="#FF6818" stroke-width="2"/>
<line y1="-1" x2="471.39" y2="-1" transform="matrix(-0.938854 0.344315 -0.995868 0.0908136 348.618 1)" stroke="#FF6818" stroke-width="2"/>
<line y1="-1" x2="471.39" y2="-1" transform="matrix(-0.938854 0.344315 -0.995868 0.0908136 367.643 1)" stroke="#FF6818" stroke-width="2"/>
<line y1="-1" x2="471.39" y2="-1" transform="matrix(-0.938854 0.344315 -0.995868 0.0908136 386.669 1)" stroke="#FF6818" stroke-width="2"/>
<line y1="-1" x2="471.39" y2="-1" transform="matrix(-0.938854 0.344315 -0.995868 0.0908136 405.694 1)" stroke="#FF6818" stroke-width="2"/>
<line y1="-1" x2="471.39" y2="-1" transform="matrix(-0.938854 0.344315 -0.995868 0.0908136 424.72 1)" stroke="#FF6818" stroke-width="2"/>
<line y1="-1" x2="471.39" y2="-1" transform="matrix(-0.938854 0.344315 -0.995868 0.0908136 443.746 1)" stroke="#FF6818" stroke-width="2"/>
<line y1="-1" x2="471.39" y2="-1" transform="matrix(-0.938854 0.344315 -0.995868 0.0908136 462.771 1)" stroke="#FF6818" stroke-width="2"/>
<line y1="-1" x2="471.39" y2="-1" transform="matrix(-0.938854 0.344315 -0.995868 0.0908136 481.797 1)" stroke="#FF6818" stroke-width="2"/>
<line y1="-1" x2="471.39" y2="-1" transform="matrix(-0.938854 0.344315 -0.995868 0.0908136 500.822 1)" stroke="#FF6818" stroke-width="2"/>
<line y1="-1" x2="471.39" y2="-1" transform="matrix(-0.938854 0.344315 -0.995868 0.0908136 519.848 1)" stroke="#FF6818" stroke-width="2"/>
<line y1="-1" x2="471.39" y2="-1" transform="matrix(-0.938854 0.344315 -0.995868 0.0908136 538.873 1)" stroke="#FF6818" stroke-width="2"/>
<line y1="-1" x2="471.39" y2="-1" transform="matrix(-0.938854 0.344315 -0.995868 0.0908136 557.899 1)" stroke="#FF6818" stroke-width="2"/>
<line y1="-1" x2="471.39" y2="-1" transform="matrix(-0.938854 0.344315 -0.995868 0.0908136 900.359 1)" stroke="#FF6818" stroke-width="2"/>
<line y1="-1" x2="471.39" y2="-1" transform="matrix(-0.938854 0.344315 -0.995868 0.0908136 1187.75 1)" stroke="#FF6818" stroke-width="2"/>
<line y1="-1" x2="471.39" y2="-1" transform="matrix(-0.938854 0.344315 -0.995868 0.0908136 576.925 1)" stroke="#FF6818" stroke-width="2"/>
<line y1="-1" x2="471.39" y2="-1" transform="matrix(-0.938854 0.344315 -0.995868 0.0908136 919.385 1)" stroke="#FF6818" stroke-width="2"/>
<line y1="-1" x2="471.39" y2="-1" transform="matrix(-0.938854 0.344315 -0.995868 0.0908136 595.95 1)" stroke="#FF6818" stroke-width="2"/>
<line y1="-1" x2="471.39" y2="-1" transform="matrix(-0.938854 0.344315 -0.995868 0.0908136 938.411 1)" stroke="#FF6818" stroke-width="2"/>
<line y1="-1" x2="471.39" y2="-1" transform="matrix(-0.938854 0.344315 -0.995868 0.0908136 614.976 1)" stroke="#FF6818" stroke-width="2"/>
<line y1="-1" x2="471.39" y2="-1" transform="matrix(-0.938854 0.344315 -0.995868 0.0908136 957.436 1)" stroke="#FF6818" stroke-width="2"/>
<line y1="-1" x2="471.39" y2="-1" transform="matrix(-0.938854 0.344315 -0.995868 0.0908136 634.001 1)" stroke="#FF6818" stroke-width="2"/>
<line y1="-1" x2="471.39" y2="-1" transform="matrix(-0.938854 0.344315 -0.995868 0.0908136 976.462 1)" stroke="#FF6818" stroke-width="2"/>
<line y1="-1" x2="471.39" y2="-1" transform="matrix(-0.938854 0.344315 -0.995868 0.0908136 653.027 1)" stroke="#FF6818" stroke-width="2"/>
<line y1="-1" x2="471.39" y2="-1" transform="matrix(-0.938854 0.344315 -0.995868 0.0908136 995.487 1)" stroke="#FF6818" stroke-width="2"/>
<line y1="-1" x2="471.39" y2="-1" transform="matrix(-0.938854 0.344315 -0.995868 0.0908136 672.052 1)" stroke="#FF6818" stroke-width="2"/>
<line y1="-1" x2="471.39" y2="-1" transform="matrix(-0.938854 0.344315 -0.995868 0.0908136 1014.51 1)" stroke="#FF6818" stroke-width="2"/>
<line y1="-1" x2="471.39" y2="-1" transform="matrix(-0.938854 0.344315 -0.995868 0.0908136 691.078 1)" stroke="#FF6818" stroke-width="2"/>
<line y1="-1" x2="471.39" y2="-1" transform="matrix(-0.938854 0.344315 -0.995868 0.0908136 1033.54 1)" stroke="#FF6818" stroke-width="2"/>
<line y1="-1" x2="471.39" y2="-1" transform="matrix(-0.938854 0.344315 -0.995868 0.0908136 710.104 1)" stroke="#FF6818" stroke-width="2"/>
<line y1="-1" x2="471.39" y2="-1" transform="matrix(-0.938854 0.344315 -0.995868 0.0908136 729.129 1)" stroke="#FF6818" stroke-width="2"/>
<line y1="-1" x2="471.39" y2="-1" transform="matrix(-0.938854 0.344315 -0.995868 0.0908136 748.155 1)" stroke="#FF6818" stroke-width="2"/>
<line y1="-1" x2="471.39" y2="-1" transform="matrix(-0.938854 0.344315 -0.995868 0.0908136 767.18 1)" stroke="#FF6818" stroke-width="2"/>
<line y1="-1" x2="471.39" y2="-1" transform="matrix(-0.938854 0.344315 -0.995868 0.0908136 1054.57 1)" stroke="#FF6818" stroke-width="2"/>
<line y1="-1" x2="471.39" y2="-1" transform="matrix(-0.938854 0.344315 -0.995868 0.0908136 786.206 1)" stroke="#FF6818" stroke-width="2"/>
<line y1="-1" x2="471.39" y2="-1" transform="matrix(-0.938854 0.344315 -0.995868 0.0908136 1073.59 1)" stroke="#FF6818" stroke-width="2"/>
<line y1="-1" x2="471.39" y2="-1" transform="matrix(-0.938854 0.344315 -0.995868 0.0908136 805.231 1)" stroke="#FF6818" stroke-width="2"/>
<line y1="-1" x2="471.39" y2="-1" transform="matrix(-0.938854 0.344315 -0.995868 0.0908136 1092.62 1)" stroke="#FF6818" stroke-width="2"/>
<line y1="-1" x2="471.39" y2="-1" transform="matrix(-0.938854 0.344315 -0.995868 0.0908136 824.257 1)" stroke="#FF6818" stroke-width="2"/>
<line y1="-1" x2="471.39" y2="-1" transform="matrix(-0.938854 0.344315 -0.995868 0.0908136 1111.64 1)" stroke="#FF6818" stroke-width="2"/>
<line y1="-1" x2="471.39" y2="-1" transform="matrix(-0.938854 0.344315 -0.995868 0.0908136 843.283 1)" stroke="#FF6818" stroke-width="2"/>
<line y1="-1" x2="471.39" y2="-1" transform="matrix(-0.938854 0.344315 -0.995868 0.0908136 1130.67 1)" stroke="#FF6818" stroke-width="2"/>
<line y1="-1" x2="471.39" y2="-1" transform="matrix(-0.938854 0.344315 -0.995868 0.0908136 862.308 1)" stroke="#FF6818" stroke-width="2"/>
<line y1="-1" x2="471.39" y2="-1" transform="matrix(-0.938854 0.344315 -0.995868 0.0908136 1149.69 1)" stroke="#FF6818" stroke-width="2"/>
<line y1="-1" x2="471.39" y2="-1" transform="matrix(-0.938854 0.344315 -0.995868 0.0908136 881.334 1)" stroke="#FF6818" stroke-width="2"/>
<line y1="-1" x2="471.39" y2="-1" transform="matrix(-0.938854 0.344315 -0.995868 0.0908136 1168.72 1)" stroke="#FF6818" stroke-width="2"/>
</svg>
