<svg width="1149" height="306" viewBox="0 0 1149 306" fill="none" xmlns="http://www.w3.org/2000/svg">
<path fill-rule="evenodd" clip-rule="evenodd" d="M558.454 15.7454L641.616 36.932L757.854 0.792969L792.705 32.3089L929.078 5.41589L935.146 4.21918L932.541 9.82918L919.942 36.9624L917.481 42.2631L923.29 41.6244L1056.8 26.9457L1068.94 25.6108L1058.41 31.7988L1009.75 60.3932L1000.89 65.5941L1011.16 65.3627L1126.31 62.7663L1143.11 62.3876L1127.18 67.7479L1044.61 95.5422L1032.88 99.4877L1045.2 100.618L1131.97 108.578L1148.7 110.114L1132.27 113.627L1061.67 128.721L1057.29 124.545L1115.53 112.092L1036.62 104.851L1031.95 100.403L1031.29 94.7489L1110.39 68.1267L1001.01 70.5928L981.778 71.0263L998.361 61.2831L1046.27 33.1337L918.027 47.2332L909.21 48.2026L912.946 40.1574L926.473 11.0259L793.672 37.2144L791.211 37.6997L789.351 36.0173L756.616 6.41414L643.1 41.7065L641.751 42.1261L640.381 41.7772L559.077 21.0638L484.758 60.0036L483.507 60.6595L482.097 60.5631L363.498 52.4558L338.925 88.188L329.517 86.1755L334.369 85.9887L360.994 47.2729L482.438 55.5748L558.454 15.7454ZM160.004 131.375L76.1799 141.795L64.0581 143.302L75.7347 146.889L129.692 163.464L139.505 166.479L129.466 168.626L16.829 192.708L0.396484 196.221L17.1301 197.757L103.896 205.717L116.213 206.847L104.491 210.793L21.9121 238.587L5.98614 243.947L22.7857 243.569L137.939 240.972L148.203 240.741L139.351 245.942L90.6846 274.536L80.1528 280.724L92.2948 279.389L225.807 264.711L231.616 264.072L229.155 269.373L216.556 296.506L213.951 302.116L220.019 300.919L356.392 274.026L391.242 305.542L507.481 269.403L590.643 290.59L644.253 262.5H633.479L590.02 285.271L508.715 264.558L507.346 264.209L505.997 264.629L392.481 299.921L359.746 270.318L357.886 268.635L355.425 269.121L222.624 295.309L236.151 266.178L237.859 262.5H200.158L102.827 273.201L150.736 245.052L156.21 241.836L156.426 235.554L148.09 235.742L38.7117 238.208L117.808 211.586L116.67 201.868L33.5625 194.243L140.551 171.369L158.764 167.475L158.775 167.168L140.974 161.7L87.8566 145.382L159.83 136.435L160.004 131.375Z" fill="white"/>
</svg>
