<svg width="1062" height="302" viewBox="0 0 1062 302" fill="none" xmlns="http://www.w3.org/2000/svg">
<path fill-rule="evenodd" clip-rule="evenodd" d="M546.177 282.562C399.986 299.684 266.019 299.908 167.656 286.516C118.435 279.814 78.4186 269.74 50.3004 256.842C21.8684 243.801 7.15477 228.626 5.27131 212.545C3.64618 198.669 11.4378 183.223 29.6728 166.73C47.736 150.392 75.1636 133.868 110.47 117.931L110.661 112.364C109.998 112.66 109.338 112.956 108.681 113.253C37.3671 145.402 -3.51244 180.529 0.30525 213.126C9.1363 288.529 253.792 321.84 546.759 287.528C637.763 276.87 722.724 260.94 796.351 241.783C796.567 241.726 796.784 241.67 797 241.614L777.582 241.385C708.352 258.503 629.839 272.764 546.177 282.562ZM289.843 59.1697C357.626 42.6929 434.063 28.9579 515.361 19.4364C661.552 2.31478 795.519 2.09 893.882 15.4826C943.103 22.1841 983.119 32.2581 1011.24 45.1559C1039.67 58.1976 1054.38 73.372 1056.27 89.4537C1057.44 99.4372 1053.75 110.22 1044.73 121.695L1046.58 127.336C1057.55 114.349 1062.7 101.423 1061.23 88.8721C1052.4 13.4693 807.746 -19.8414 514.779 14.4704C431.111 24.2694 352.551 38.5241 283.211 55.6466C281.69 56.0223 280.173 56.3993 278.661 56.7776L289.843 59.1697Z" fill="#2C2A29"/>
<path d="M759.992 267.343L794.374 240.551L751 236.241" stroke="#2C2A29" stroke-width="5"/>
</svg>
