<svg width="94" height="123" viewBox="0 0 94 123" fill="none" xmlns="http://www.w3.org/2000/svg">
<path d="M70 83L70 111" stroke="black" stroke-width="2"/>
<path d="M70.1709 45V9.22567C68.4341 7.54613 63.8025 5.19476 59.1709 9.22567V45" stroke="black" stroke-width="2"/>
<path d="M47.1709 45V9.22567C45.4341 7.54613 40.8025 5.19476 36.1709 9.22567V40" stroke="black" stroke-width="2"/>
<path d="M59.1709 45V3.5771C57.2762 1.63236 52.2235 -1.09027 47.1709 3.5771V45" stroke="black" stroke-width="2"/>
<path d="M34.6709 114.498L37.1709 78.9984L26.6709 66.4984L23.1709 30.9984C27.8376 28.6651 37.1709 29.4984 37.1709 51.4984" stroke="black" stroke-width="2"/>
<path d="M59.6709 86.0016C64.8376 85.5016 75.6709 82.7016 77.6709 75.5016C79.6709 68.3016 80.5042 35.1682 79.6709 20.0016C78.3376 18.3349 73.8709 16.0016 70.6709 20.0016V46.0015" stroke="black" stroke-width="2"/>
<path d="M71.9999 82.4998C82.4801 94.0932 88.5053 105.857 84.7777 110.562C79.4575 117.277 58.323 109.394 37.5723 92.954C16.8217 76.5142 4.31289 57.7433 9.63306 51.0281C12.033 47.9989 17.6509 47.9403 25 50.2978" stroke="black" stroke-width="2"/>
<circle cx="13" cy="67" r="6" fill="black"/>
<mask id="path-9-inside-1_513_299" fill="white">
<path fill-rule="evenodd" clip-rule="evenodd" d="M38.0002 62.9993C40.6434 57.0912 46.3661 53 52.9999 53C59.6337 53 65.3565 57.0913 67.9996 62.9993C65.3565 68.9073 59.6337 72.9986 52.9999 72.9986C46.3661 72.9986 40.6433 68.9073 38.0002 62.9993Z"/>
</mask>
<path d="M38.0002 62.9993L36.1746 62.1825L35.8092 62.9993L36.1746 63.816L38.0002 62.9993ZM67.9996 62.9993L69.8252 63.816L70.1906 62.9993L69.8252 62.1826L67.9996 62.9993ZM39.8259 63.816C42.1761 58.5627 47.2237 55 52.9999 55V51C45.5085 51 39.1106 55.6198 36.1746 62.1825L39.8259 63.816ZM52.9999 55C58.7761 55 63.8237 58.5627 66.1739 63.816L69.8252 62.1826C66.8892 55.6198 60.4913 51 52.9999 51V55ZM66.1739 62.1826C63.8237 67.4359 58.7761 70.9986 52.9999 70.9986V74.9986C60.4913 74.9986 66.8892 70.3787 69.8252 63.816L66.1739 62.1826ZM52.9999 70.9986C47.2237 70.9986 42.1761 67.4359 39.8259 62.1825L36.1746 63.816C39.1106 70.3787 45.5085 74.9986 52.9999 74.9986V70.9986Z" fill="black" mask="url(#path-9-inside-1_513_299)"/>
<circle cx="53" cy="63" r="4" fill="black"/>
</svg>
