<svg width="94" height="123" viewBox="0 0 94 123" fill="none" xmlns="http://www.w3.org/2000/svg">
<path fill-rule="evenodd" clip-rule="evenodd" d="M59.8873 2.87923C58.8198 1.78364 56.896 0.49052 54.5129 0.110034C52.0746 -0.279263 49.2411 0.303486 46.4925 2.84251L46.171 3.13945V3.57707V7.24922C45.2615 6.72552 44.1504 6.28265 42.9053 6.09535C40.6663 5.75855 38.055 6.26033 35.5145 8.47132L35.171 8.77027V9.22564V34.8337C34.4136 33.3861 33.5431 32.253 32.5957 31.3868C29.2864 28.3612 25.3093 28.8127 22.7238 30.1054L22.1083 30.4132L22.1758 31.098L25.6758 66.598L25.7062 66.906L25.9053 67.143L36.145 79.3332L33.6734 114.43L33.6324 115.013L34.1207 115.335L34.671 114.5C34.1207 115.335 34.1207 115.335 34.1207 115.335L34.1223 115.336L34.1245 115.337L34.1308 115.341L34.1509 115.354L34.1787 115.372L34.2211 115.399C34.2811 115.436 34.3676 115.489 34.4799 115.555C34.7044 115.687 35.0326 115.872 35.4601 116.092C36.3151 116.532 37.5684 117.113 39.1861 117.691C42.4218 118.849 47.1183 120 53 120C58.9801 120 63.4199 118.047 66.3672 116.082C67.8383 115.101 68.9369 114.118 69.672 113.375C70.0397 113.003 70.3173 112.69 70.5058 112.467C70.6001 112.355 70.6722 112.265 70.7222 112.201C70.7472 112.17 70.7667 112.144 70.7808 112.126L70.7977 112.103L70.8031 112.096L70.805 112.093L70.8057 112.092C70.8057 112.092 70.8064 112.091 70 111.5C69.6266 111.226 69.4261 111.079 69.3186 111H71V83.8236C74.427 82.1103 77.5891 79.5311 78.6345 75.7677C79.164 73.8616 79.5958 70.348 79.9413 66.0028C80.2893 61.6262 80.5556 56.3188 80.733 50.7695C81.0876 39.6763 81.0884 27.5693 80.6695 19.9452L80.6519 19.6255L80.4519 19.3754C79.6354 18.3549 77.97 17.2239 76.0417 16.8898C74.4736 16.6181 72.7354 16.8778 71.171 18.0972V9.22564V8.80157L70.8661 8.50678C69.8731 7.54648 68.0969 6.42502 65.9053 6.09535C64.1513 5.83151 62.1689 6.08228 60.171 7.26619V3.57707V3.17046L59.8873 2.87923Z" fill="#AAD90F"/>
<path d="M71.9999 82.4998C82.4801 94.0932 88.5053 105.857 84.7777 110.562C79.4575 117.277 58.323 109.394 37.5723 92.954C16.8217 76.5142 4.31289 57.7433 9.63306 51.0281C12.033 47.9989 17.6509 47.9403 25 50.2978" stroke="white" stroke-width="2"/>
<circle cx="13" cy="67" r="6" fill="#FE4023"/>
<path fill-rule="evenodd" clip-rule="evenodd" d="M38 63C40.643 57.0916 46.3659 53 53 53C59.6341 53 65.357 57.0916 68 63C65.357 68.9084 59.6341 73 53 73C46.3659 73 40.643 68.9084 38 63Z" fill="white"/>
<circle cx="53" cy="63" r="4" fill="#121DCB"/>
<line x1="46.5" y1="7.5" x2="46.5" y2="42.5" stroke="black" stroke-linecap="round"/>
<line x1="60.5" y1="7.5" x2="60.5" y2="42.5" stroke="black" stroke-linecap="round"/>
<line x1="71.5" y1="18.5" x2="71.5" y2="43.5" stroke="black" stroke-linecap="round"/>
<path d="M35 35C35.8333 37.6667 37.5 44.2 37.5 49" stroke="black" stroke-linecap="round"/>
</svg>
