<svg width="74" height="120" viewBox="0 0 74 120" fill="none" xmlns="http://www.w3.org/2000/svg">
<ellipse cx="9" cy="22" rx="22" ry="9" transform="rotate(90 9 22)" fill="#1C12D5"/>
<ellipse cx="52" cy="111" rx="22" ry="9" fill="#1C12D5"/>
<path d="M52 51C52 47.1917 51.2499 43.4206 49.7925 39.9022C48.3351 36.3837 46.199 33.1868 43.5061 30.4939C40.8132 27.801 37.6163 25.6649 34.0978 24.2075C30.5794 22.7501 26.8083 22 23 22" stroke="white" stroke-width="2"/>
<line x1="52" y1="53" x2="52" y2="120" stroke="white" stroke-width="2"/>
<line x1="24" y1="22" x2="8.74228e-08" y2="22" stroke="white" stroke-width="2"/>
<path d="M66 57C66 57.4649 65.7686 58.0089 65.1341 58.6089C64.4975 59.2109 63.5227 59.7992 62.2352 60.3142C59.6657 61.342 56.0475 62 52 62C47.9525 62 44.3343 61.342 41.7648 60.3142C40.4773 59.7992 39.5025 59.2109 38.8659 58.6089C38.2314 58.0089 38 57.4649 38 57C38 56.5351 38.2314 55.9911 38.8659 55.3911C39.5025 54.7891 40.4773 54.2008 41.7648 53.6858C44.3343 52.658 47.9525 52 52 52C56.0475 52 59.6657 52.658 62.2352 53.6858C63.5227 54.2008 64.4975 54.7891 65.1341 55.3911C65.7686 55.9911 66 56.5351 66 57Z" stroke="#FE4023" stroke-width="2"/>
<path d="M66 63C66 63.4649 65.7686 64.0089 65.1341 64.6089C64.4975 65.2109 63.5227 65.7992 62.2352 66.3142C59.6657 67.342 56.0475 68 52 68C47.9525 68 44.3343 67.342 41.7648 66.3142C40.4773 65.7992 39.5025 65.2109 38.8659 64.6089C38.2314 64.0089 38 63.4649 38 63C38 62.5351 38.2314 61.9911 38.8659 61.3911C39.5025 60.7891 40.4773 60.2008 41.7648 59.6858C44.3343 58.658 47.9525 58 52 58C56.0475 58 59.6657 58.658 62.2352 59.6858C63.5227 60.2008 64.4975 60.7891 65.1341 61.3911C65.7686 61.9911 66 62.5351 66 63Z" stroke="#FE4023" stroke-width="2"/>
<circle cx="52" cy="88" r="8" fill="#AAD90F"/>
<circle cx="35" cy="25" r="5" fill="#AAD90F"/>
</svg>
