<svg width="80" height="80" viewBox="0 0 80 80" fill="none" xmlns="http://www.w3.org/2000/svg">
<path d="M48.7295 40C48.7295 50.9902 47.645 60.9071 45.908 68.0479C45.0377 71.6262 44.0166 74.4515 42.9201 76.3581C41.7806 78.3396 40.7578 79 39.9998 79C39.2417 79 38.2189 78.3396 37.0794 76.3581C35.9829 74.4515 34.9618 71.6262 34.0915 68.0479C32.3545 60.9071 31.27 50.9902 31.27 40C31.27 29.0098 32.3545 19.0929 34.0915 11.9521C34.9618 8.37384 35.9829 5.5485 37.0794 3.64193C38.2189 1.6604 39.2417 1 39.9998 1C40.7578 1 41.7806 1.6604 42.9201 3.64193C44.0166 5.5485 45.0377 8.37384 45.908 11.9521C47.645 19.0929 48.7295 29.0098 48.7295 40Z" stroke="black" stroke-width="2"/>
<path d="M40 48.73C29.0098 48.73 19.0929 47.6455 11.9521 45.9085C8.37384 45.0381 5.5485 44.0171 3.64193 42.9206C1.66039 41.7811 1 40.7583 1 40.0002C1 39.2422 1.66039 38.2194 3.64193 37.0799C5.5485 35.9834 8.37384 34.9623 11.9521 34.0919C19.0929 32.355 29.0098 31.2705 40 31.2705C50.9902 31.2705 60.9071 32.355 68.0479 34.0919C71.6262 34.9623 74.4515 35.9834 76.3581 37.0799C78.3396 38.2194 79 39.2422 79 40.0002C79 40.7583 78.3396 41.7811 76.3581 42.9206C74.4515 44.0171 71.6262 45.0381 68.0479 45.9085C60.9071 47.6455 50.9902 48.73 40 48.73Z" stroke="black" stroke-width="2"/>
<path d="M33.8272 33.827C41.5984 26.0558 49.3775 19.8103 55.6551 15.9892C58.8007 14.0744 61.5206 12.7986 63.644 12.2258C65.851 11.6304 67.0412 11.8866 67.5772 12.4227C68.1132 12.9587 68.3694 14.1489 67.7741 16.3558C67.2012 18.4793 65.9254 21.1991 64.0107 24.3448C60.1896 30.6223 53.9441 38.4015 46.1729 46.1727C38.4016 53.9439 30.6225 60.1894 24.3449 64.0105C21.1993 65.9252 18.4795 67.2011 16.356 67.7739C14.149 68.3693 12.9589 68.113 12.4229 67.577C11.8868 67.041 11.6306 65.8508 12.226 63.6439C12.7988 61.5204 14.0746 58.8006 15.9893 55.6549C19.8105 49.3774 26.0559 41.5982 33.8272 33.827Z" stroke="black" stroke-width="2"/>
<path d="M46.173 33.8291C53.9442 41.6003 60.1897 49.3795 64.0108 55.6571C65.9256 58.8027 67.2014 61.5225 67.7742 63.646C68.3696 65.8529 68.1134 67.0431 67.5773 67.5791C67.0413 68.1152 65.8511 68.3714 63.6442 67.776C61.5207 67.2032 58.8009 65.9274 55.6552 64.0126C49.3777 60.1915 41.5985 53.946 33.8273 46.1748C26.0561 38.4036 19.8106 30.6244 15.9895 24.3469C14.0748 21.2012 12.7989 18.4814 12.2261 16.3579C11.6307 14.151 11.887 12.9608 12.423 12.4248C12.959 11.8888 14.1492 11.6325 16.3561 12.2279C18.4796 12.8008 21.1994 14.0766 24.3451 15.9913C30.6226 19.8124 38.4018 26.0579 46.173 33.8291Z" stroke="black" stroke-width="2"/>
<circle cx="12.9733" cy="58.3781" r="5.40541" fill="black"/>
<circle cx="45.9459" cy="11.3502" r="3.78378" fill="black"/>
</svg>
