<svg width="80" height="80" viewBox="0 0 80 80" fill="none" xmlns="http://www.w3.org/2000/svg">
<path d="M48.7296 40C48.7296 50.9902 47.6451 60.9071 45.9081 68.0479C45.0378 71.6262 44.0167 74.4515 42.9202 76.3581C41.7807 78.3396 40.7579 79 39.9998 79C39.2418 79 38.219 78.3396 37.0795 76.3581C35.983 74.4515 34.9619 71.6262 34.0916 68.0479C32.3546 60.9071 31.2701 50.9902 31.2701 40C31.2701 29.0098 32.3546 19.0929 34.0916 11.9521C34.9619 8.37384 35.983 5.5485 37.0795 3.64193C38.219 1.6604 39.2418 1 39.9998 1C40.7579 1 41.7807 1.6604 42.9202 3.64193C44.0167 5.5485 45.0378 8.37384 45.9081 11.9521C47.6451 19.0929 48.7296 29.0098 48.7296 40Z" stroke="#5B45E1" stroke-width="2"/>
<path d="M40 48.73C29.0098 48.73 19.0929 47.6455 11.9521 45.9085C8.37384 45.0381 5.5485 44.0171 3.64193 42.9206C1.66039 41.7811 1 40.7583 1 40.0002C1 39.2422 1.66039 38.2194 3.64193 37.0799C5.5485 35.9834 8.37384 34.9623 11.9521 34.0919C19.0929 32.355 29.0098 31.2705 40 31.2705C50.9902 31.2705 60.9071 32.355 68.0479 34.0919C71.6262 34.9623 74.4515 35.9834 76.3581 37.0799C78.3396 38.2194 79 39.2422 79 40.0002C79 40.7583 78.3396 41.7811 76.3581 42.9206C74.4515 44.0171 71.6262 45.0381 68.0479 45.9085C60.9071 47.6455 50.9902 48.73 40 48.73Z" stroke="#5B45E1" stroke-width="2"/>
<path d="M33.8271 33.827C41.5983 26.0558 49.3775 19.8103 55.655 15.9892C58.8007 14.0744 61.5205 12.7986 63.6439 12.2258C65.8509 11.6304 67.0411 11.8866 67.5771 12.4227C68.1131 12.9587 68.3693 14.1489 67.774 16.3558C67.2011 18.4793 65.9253 21.1991 64.0106 24.3448C60.1895 30.6223 53.944 38.4015 46.1728 46.1727C38.4015 53.9439 30.6224 60.1894 24.3448 64.0105C21.1992 65.9252 18.4794 67.2011 16.3559 67.7739C14.149 68.3693 12.9588 68.113 12.4228 67.577C11.8867 67.041 11.6305 65.8508 12.2259 63.6439C12.7987 61.5204 14.0745 58.8006 15.9893 55.6549C19.8104 49.3774 26.0558 41.5982 33.8271 33.827Z" stroke="#5B45E1" stroke-width="2"/>
<path d="M46.1729 33.8272C53.9442 41.5984 60.1896 49.3775 64.0107 55.6551C65.9255 58.8007 67.2013 61.5206 67.7741 63.644C68.3695 65.851 68.1133 67.0412 67.5772 67.5772C67.0412 68.1132 65.851 68.3694 63.6441 67.7741C61.5206 67.2012 58.8008 65.9254 55.6552 64.0107C49.3776 60.1896 41.5985 53.9441 33.8272 46.1729C26.056 38.4016 19.8105 30.6225 15.9894 24.3449C14.0747 21.1993 12.7989 18.4795 12.226 16.356C11.6307 14.149 11.8869 12.9589 12.4229 12.4229C12.9589 11.8868 14.1491 11.6306 16.3561 12.226C18.4795 12.7988 21.1993 14.0746 24.345 15.9893C30.6225 19.8105 38.4017 26.0559 46.1729 33.8272Z" stroke="#5B45E1" stroke-width="2"/>
<circle cx="12.9732" cy="58.3781" r="5.40541" fill="#FF6818"/>
<circle cx="45.9459" cy="11.3512" r="3.78378" fill="#FF6818"/>
</svg>
