<svg width="339" height="339" viewBox="0 0 339 339" fill="none" xmlns="http://www.w3.org/2000/svg">
<path d="M169.5 0L171.097 139.032L187.218 0.928543L174.273 139.366L204.741 3.70398L177.397 140.03L221.878 8.29591L180.434 141.016L238.442 14.654L183.351 142.315L254.25 22.7087L186.117 143.912L269.13 32.3716L188.701 145.789L282.918 43.5369L191.074 147.926L295.463 56.0824L193.211 150.299L306.628 69.8704L195.088 152.883L316.291 84.75L196.685 155.649L324.346 100.558L197.984 158.566L330.704 117.122L198.97 161.603L335.296 134.259L199.634 164.727L338.071 151.782L199.968 167.903L339 169.5L199.968 171.097L338.071 187.218L199.634 174.273L335.296 204.741L198.97 177.397L330.704 221.878L197.984 180.434L324.346 238.442L196.685 183.351L316.291 254.25L195.088 186.117L306.628 269.13L193.211 188.701L295.463 282.918L191.074 191.074L282.918 295.463L188.701 193.211L269.13 306.628L186.117 195.088L254.25 316.291L183.351 196.685L238.442 324.346L180.434 197.984L221.878 330.704L177.397 198.97L204.741 335.296L174.273 199.634L187.218 338.071L171.097 199.968L169.5 339L167.903 199.968L151.782 338.071L164.727 199.634L134.259 335.296L161.603 198.97L117.122 330.704L158.566 197.984L100.558 324.346L155.649 196.685L84.75 316.291L152.883 195.088L69.8704 306.628L150.299 193.211L56.0824 295.463L147.926 191.074L43.5369 282.918L145.789 188.701L32.3716 269.13L143.912 186.117L22.7087 254.25L142.315 183.351L14.654 238.442L141.016 180.434L8.29591 221.878L140.03 177.397L3.70398 204.741L139.366 174.273L0.928543 187.218L139.032 171.097L0 169.5L139.032 167.903L0.928543 151.782L139.366 164.727L3.70398 134.259L140.03 161.603L8.29591 117.122L141.016 158.566L14.654 100.558L142.315 155.649L22.7087 84.75L143.912 152.883L32.3716 69.8704L145.789 150.299L43.5369 56.0824L147.926 147.926L56.0824 43.5369L150.299 145.789L69.8704 32.3716L152.883 143.912L84.75 22.7087L155.649 142.315L100.558 14.654L158.566 141.016L117.122 8.29591L161.603 140.03L134.259 3.70398L164.727 139.366L151.782 0.928543L167.903 139.032L169.5 0Z" fill="#FF6818"/>
</svg>
