<svg width="1370" height="658" viewBox="0 0 1370 658" fill="none" xmlns="http://www.w3.org/2000/svg">
<line y1="-0.5" x2="804.343" y2="-0.5" transform="matrix(-0.5769 0.816815 -0.833428 -0.552628 455.026 0)" stroke="#FF6818"/>
<line y1="-0.5" x2="804.343" y2="-0.5" transform="matrix(-0.5769 0.816815 -0.833428 -0.552628 474.051 0)" stroke="#FF6818"/>
<line y1="-0.5" x2="804.343" y2="-0.5" transform="matrix(-0.5769 0.816815 -0.833428 -0.552628 493.077 0)" stroke="#FF6818"/>
<line y1="-0.5" x2="804.343" y2="-0.5" transform="matrix(-0.5769 0.816815 -0.833428 -0.552628 512.102 0)" stroke="#FF6818"/>
<line y1="-0.5" x2="804.343" y2="-0.5" transform="matrix(-0.5769 0.816815 -0.833428 -0.552628 531.128 0)" stroke="#FF6818"/>
<line y1="-0.5" x2="804.343" y2="-0.5" transform="matrix(-0.5769 0.816815 -0.833428 -0.552628 550.153 0)" stroke="#FF6818"/>
<line y1="-0.5" x2="804.343" y2="-0.5" transform="matrix(-0.5769 0.816815 -0.833428 -0.552628 569.179 0)" stroke="#FF6818"/>
<line y1="-0.5" x2="804.343" y2="-0.5" transform="matrix(-0.5769 0.816815 -0.833428 -0.552628 588.205 0)" stroke="#FF6818"/>
<line y1="-0.5" x2="804.343" y2="-0.5" transform="matrix(-0.5769 0.816815 -0.833428 -0.552628 607.23 0)" stroke="#FF6818"/>
<line y1="-0.5" x2="804.343" y2="-0.5" transform="matrix(-0.5769 0.816815 -0.833428 -0.552628 626.256 0)" stroke="#FF6818"/>
<line y1="-0.5" x2="804.343" y2="-0.5" transform="matrix(-0.5769 0.816815 -0.833428 -0.552628 645.281 0)" stroke="#FF6818"/>
<line y1="-0.5" x2="804.343" y2="-0.5" transform="matrix(-0.5769 0.816815 -0.833428 -0.552628 664.307 0)" stroke="#FF6818"/>
<line y1="-0.5" x2="804.343" y2="-0.5" transform="matrix(-0.5769 0.816815 -0.833428 -0.552628 683.332 0)" stroke="#FF6818"/>
<line y1="-0.5" x2="804.343" y2="-0.5" transform="matrix(-0.5769 0.816815 -0.833428 -0.552628 702.358 0)" stroke="#FF6818"/>
<line y1="-0.5" x2="804.343" y2="-0.5" transform="matrix(-0.5769 0.816815 -0.833428 -0.552628 1044.82 0)" stroke="#FF6818"/>
<line y1="-0.5" x2="804.343" y2="-0.5" transform="matrix(-0.5769 0.816815 -0.833428 -0.552628 721.384 0)" stroke="#FF6818"/>
<line y1="-0.5" x2="804.343" y2="-0.5" transform="matrix(-0.5769 0.816815 -0.833428 -0.552628 1063.84 0)" stroke="#FF6818"/>
<line y1="-0.5" x2="804.343" y2="-0.5" transform="matrix(-0.5769 0.816815 -0.833428 -0.552628 740.409 0)" stroke="#FF6818"/>
<line y1="-0.5" x2="804.343" y2="-0.5" transform="matrix(-0.5769 0.816815 -0.833428 -0.552628 1082.87 0)" stroke="#FF6818"/>
<line y1="-0.5" x2="804.343" y2="-0.5" transform="matrix(-0.5769 0.816815 -0.833428 -0.552628 759.435 0)" stroke="#FF6818"/>
<line y1="-0.5" x2="804.343" y2="-0.5" transform="matrix(-0.5769 0.816815 -0.833428 -0.552628 1101.9 0)" stroke="#FF6818"/>
<line y1="-0.5" x2="804.343" y2="-0.5" transform="matrix(-0.5769 0.816815 -0.833428 -0.552628 778.46 0)" stroke="#FF6818"/>
<line y1="-0.5" x2="804.343" y2="-0.5" transform="matrix(-0.5769 0.816815 -0.833428 -0.552628 1120.92 0)" stroke="#FF6818"/>
<line y1="-0.5" x2="804.343" y2="-0.5" transform="matrix(-0.5769 0.816815 -0.833428 -0.552628 797.486 0)" stroke="#FF6818"/>
<line y1="-0.5" x2="804.343" y2="-0.5" transform="matrix(-0.5769 0.816815 -0.833428 -0.552628 1139.95 0)" stroke="#FF6818"/>
<line y1="-0.5" x2="804.343" y2="-0.5" transform="matrix(-0.5769 0.816815 -0.833428 -0.552628 816.511 0)" stroke="#FF6818"/>
<line y1="-0.5" x2="804.343" y2="-0.5" transform="matrix(-0.5769 0.816815 -0.833428 -0.552628 1158.97 0)" stroke="#FF6818"/>
<line y1="-0.5" x2="804.343" y2="-0.5" transform="matrix(-0.5769 0.816815 -0.833428 -0.552628 835.537 0)" stroke="#FF6818"/>
<line y1="-0.5" x2="804.343" y2="-0.5" transform="matrix(-0.5769 0.816815 -0.833428 -0.552628 1178 0)" stroke="#FF6818"/>
<line y1="-0.5" x2="804.343" y2="-0.5" transform="matrix(-0.5769 0.816815 -0.833428 -0.552628 854.563 0)" stroke="#FF6818"/>
<line y1="-0.5" x2="804.343" y2="-0.5" transform="matrix(-0.5769 0.816815 -0.833428 -0.552628 1197.02 0)" stroke="#FF6818"/>
<line y1="-0.5" x2="804.343" y2="-0.5" transform="matrix(-0.5769 0.816815 -0.833428 -0.552628 873.588 0)" stroke="#FF6818"/>
<line y1="-0.5" x2="804.343" y2="-0.5" transform="matrix(-0.5769 0.816815 -0.833428 -0.552628 1216.05 0)" stroke="#FF6818"/>
<line y1="-0.5" x2="804.343" y2="-0.5" transform="matrix(-0.5769 0.816815 -0.833428 -0.552628 892.614 0)" stroke="#FF6818"/>
<line y1="-0.5" x2="804.343" y2="-0.5" transform="matrix(-0.5769 0.816815 -0.833428 -0.552628 1235.07 0)" stroke="#FF6818"/>
<line y1="-0.5" x2="804.343" y2="-0.5" transform="matrix(-0.5769 0.816815 -0.833428 -0.552628 911.639 0)" stroke="#FF6818"/>
<line y1="-0.5" x2="804.343" y2="-0.5" transform="matrix(-0.5769 0.816815 -0.833428 -0.552628 1254.1 0)" stroke="#FF6818"/>
<line y1="-0.5" x2="804.343" y2="-0.5" transform="matrix(-0.5769 0.816815 -0.833428 -0.552628 930.665 0)" stroke="#FF6818"/>
<line y1="-0.5" x2="804.343" y2="-0.5" transform="matrix(-0.5769 0.816815 -0.833428 -0.552628 1273.13 0)" stroke="#FF6818"/>
<line y1="-0.5" x2="804.343" y2="-0.5" transform="matrix(-0.5769 0.816815 -0.833428 -0.552628 949.69 0)" stroke="#FF6818"/>
<line y1="-0.5" x2="804.343" y2="-0.5" transform="matrix(-0.5769 0.816815 -0.833428 -0.552628 1292.15 0)" stroke="#FF6818"/>
<line y1="-0.5" x2="804.343" y2="-0.5" transform="matrix(-0.5769 0.816815 -0.833428 -0.552628 968.716 0)" stroke="#FF6818"/>
<line y1="-0.5" x2="804.343" y2="-0.5" transform="matrix(-0.5769 0.816815 -0.833428 -0.552628 1311.18 0)" stroke="#FF6818"/>
<line y1="-0.5" x2="804.343" y2="-0.5" transform="matrix(-0.5769 0.816815 -0.833428 -0.552628 987.742 0)" stroke="#FF6818"/>
<line y1="-0.5" x2="804.343" y2="-0.5" transform="matrix(-0.5769 0.816815 -0.833428 -0.552628 1330.2 0)" stroke="#FF6818"/>
<line y1="-0.5" x2="804.343" y2="-0.5" transform="matrix(-0.5769 0.816815 -0.833428 -0.552628 1006.77 0)" stroke="#FF6818"/>
<line y1="-0.5" x2="804.343" y2="-0.5" transform="matrix(-0.5769 0.816815 -0.833428 -0.552628 1349.23 0)" stroke="#FF6818"/>
<line y1="-0.5" x2="804.343" y2="-0.5" transform="matrix(-0.5769 0.816815 -0.833428 -0.552628 1025.79 0)" stroke="#FF6818"/>
<line y1="-0.5" x2="804.343" y2="-0.5" transform="matrix(-0.5769 0.816815 -0.833428 -0.552628 1368.25 0)" stroke="#FF6818"/>
</svg>
