<svg width="163" height="163" viewBox="0 0 163 163" fill="none" xmlns="http://www.w3.org/2000/svg">
<g clip-path="url(#clip0_637_73)">
<path d="M75.7572 2.37792L2.37364 75.7615C-0.793508 78.9286 -0.793497 84.0636 2.37365 87.2307L75.7572 160.614C78.9243 163.781 84.0593 163.781 87.2265 160.614L160.61 87.2307C163.777 84.0636 163.777 78.9286 160.61 75.7615L87.2265 2.37793C84.0593 -0.789223 78.9243 -0.789232 75.7572 2.37792Z" fill="#5B45E1"/>
<path d="M81.49 63.29C88.037 63.3046 94.4727 64.9846 100.192 68.172C105.91 71.3594 110.724 75.9494 114.18 81.51C110.734 87.0798 105.923 91.6768 100.201 94.8648C94.4803 98.0529 88.0394 99.7263 81.49 99.7263C74.9405 99.7263 68.4997 98.0529 62.7786 94.8648C57.0574 91.6768 52.2457 87.0798 48.8 81.51C52.2559 75.9494 57.0697 71.3594 62.7885 68.172C68.5073 64.9846 74.943 63.3046 81.49 63.29ZM81.49 61.29C74.3944 61.2909 67.4242 63.16 61.2802 66.7095C55.1362 70.2589 50.0351 75.3636 46.49 81.51C50.0423 87.6474 55.146 92.7427 61.2891 96.2849C67.4322 99.8272 74.3988 101.692 81.49 101.692C88.5812 101.692 95.5478 99.8272 101.691 96.2849C107.834 92.7427 112.938 87.6474 116.49 81.51C112.945 75.3636 107.844 70.2589 101.7 66.7095C95.5558 63.16 88.5856 61.2909 81.49 61.29Z" fill="white"/>
<path d="M81.49 96.8596C89.9731 96.8596 96.85 89.9827 96.85 81.4996C96.85 73.0166 89.9731 66.1396 81.49 66.1396C73.0069 66.1396 66.13 73.0166 66.13 81.4996C66.13 89.9827 73.0069 96.8596 81.49 96.8596Z" fill="white"/>
<path d="M82.49 38.38V11.5L81.49 10.5L80.49 11.5V38.6L82.49 38.38Z" fill="white"/>
<path d="M42.8 52.1502L41.09 50.9102L39.65 52.3402L41.27 53.5102C41.77 53.0402 42.27 52.5902 42.8 52.1502Z" fill="white"/>
<path d="M69.2 40.4401L64.87 27.1201L63.29 28.7001L67.29 40.8701L69.2 40.4401Z" fill="white"/>
<path d="M55.84 44.4902L52.33 39.7002L50.9 41.1302L53.95 45.3402C54.58 45.0202 55.2 44.7502 55.84 44.4902Z" fill="white"/>
<path d="M120.29 52.1502L122 50.9102L123.43 52.3402L121.82 53.5102C121.32 53.0402 120.81 52.5902 120.29 52.1502Z" fill="white"/>
<path d="M93.89 40.4401L98.22 27.1201L99.8 28.7001L95.8 40.8701L93.89 40.4401Z" fill="white"/>
<path d="M107.25 44.4902L110.76 39.6602L112.19 41.0902L109.19 45.3002C108.49 45.0202 107.89 44.7502 107.25 44.4902Z" fill="white"/>
<path d="M35.16 81.5C35.35 81.16 35.56 80.83 35.76 80.5H11.49L10.49 81.5L11.49 82.5H35.76C35.56 82.17 35.35 81.83 35.16 81.5Z" fill="white"/>
<path d="M127.82 81.5C127.63 81.83 127.42 82.17 127.22 82.5H151.49L152.49 81.5L151.49 80.5H127.22C127.42 80.83 127.63 81.16 127.82 81.5Z" fill="white"/>
<path d="M109.29 100.46C108.67 100.84 108.04 101.2 107.4 101.56L121.89 112.09L123.32 110.66L109.29 100.46Z" fill="white"/>
<path d="M99.82 105.02C99.16 105.26 98.5 105.49 97.82 105.7L110.63 123.33L112.06 121.9L99.82 105.02Z" fill="white"/>
<path d="M90.96 107.41C90.3 107.53 89.63 107.64 88.96 107.73L98.11 135.87L99.69 134.29L90.96 107.41Z" fill="white"/>
<path d="M82.49 151.49V108.23H81.49H80.49V151.49L81.49 152.49L82.49 151.49Z" fill="white"/>
<path d="M119.19 92.7002C118.65 93.2402 118.1 93.7602 117.54 94.2702L134.28 99.7002L135.87 98.1102L119.19 92.7002Z" fill="white"/>
<path d="M55.58 101.56C54.94 101.2 54.31 100.84 53.69 100.46L39.69 110.66L41.12 112.09L55.58 101.56Z" fill="white"/>
<path d="M74.02 107.7C73.35 107.61 72.68 107.5 72.02 107.38L63.29 134.29L64.87 135.87L74.02 107.7Z" fill="white"/>
<path d="M45.49 94.2604C44.93 93.7504 44.38 93.2604 43.84 92.6904L27.16 98.1104L28.7 99.7004L45.49 94.2604Z" fill="white"/>
<path d="M65.14 105.7C64.48 105.49 63.82 105.26 63.14 105.02L50.9 121.9L52.33 123.33L65.14 105.7Z" fill="white"/>
<path d="M45.921 60.9525L44.4758 58.9915L44.8702 58.7008C45.4112 58.3021 45.9225 58.4296 46.4043 59.0833C46.6534 59.4214 46.7648 59.7219 46.7383 59.9849C46.7194 60.2424 46.5784 60.468 46.3154 60.6618L45.921 60.9525ZM41.2666 59.0262L47.197 67.073L49.2932 65.5281L47.034 62.4627L47.7665 61.9228C48.6306 61.286 49.1319 60.5976 49.2707 59.8577C49.4114 59.1047 49.1744 58.3113 48.5598 57.4773C48.2995 57.1241 48.0136 56.8305 47.7019 56.5965C47.3903 56.3624 47.0565 56.2084 46.7006 56.1345C46.3466 56.0475 45.9761 56.0481 45.5889 56.1363C45.2018 56.2246 44.8091 56.4154 44.4109 56.7089L41.2666 59.0262Z" fill="white"/>
<path d="M48.2773 54.0562L53.1189 62.8014L58.4102 59.8721L57.3795 58.0103L54.3664 59.6784L53.4035 57.9392L56.1226 56.4338L55.1326 54.6456L52.4135 56.151L51.5862 54.6567L54.489 53.0496L53.4583 51.1879L48.2773 54.0562Z" fill="white"/>
<path d="M59.352 53.3128L58.5053 51.1254L58.974 50.944C59.3386 50.8029 59.6309 50.7845 59.851 50.889C60.0798 50.99 60.2697 51.2359 60.4209 51.6265C60.5486 51.9563 60.5703 52.2573 60.486 52.5295C60.3984 52.793 60.181 52.9919 59.8338 53.1263L59.352 53.3128ZM55.4082 50.3182L59.0068 59.6145L61.4285 58.677L59.9871 54.9533L60.6251 54.7063C60.7726 54.6492 60.9025 54.6239 61.0148 54.6303C61.1324 54.6247 61.2418 54.6622 61.3428 54.7429C61.4492 54.8115 61.5491 54.9275 61.6423 55.0911C61.7355 55.2546 61.8326 55.4665 61.9334 55.7269L62.1753 56.3519C62.2122 56.4474 62.261 56.5732 62.3214 56.7295C62.3872 56.8737 62.4564 57.0266 62.5289 57.1881C62.6101 57.3463 62.6957 57.5028 62.7855 57.6577C62.8841 57.8092 62.9873 57.9339 63.0951 58.0319L65.673 57.034L65.6226 56.9038C65.5277 56.8906 65.4545 56.8691 65.403 56.8391C65.3481 56.8005 65.2932 56.7618 65.2383 56.7232C65.1921 56.6812 65.1419 56.6158 65.0876 56.527C65.0332 56.4383 64.9799 56.3392 64.9275 56.2297C64.8718 56.1115 64.8188 55.9873 64.7684 55.8571C64.718 55.7269 64.6692 55.6011 64.6222 55.4796L64.3148 54.6853C64.0728 54.0604 63.7745 53.612 63.4197 53.3401C63.065 53.0682 62.5867 53.0188 61.985 53.1918L61.9749 53.1658C62.4969 52.8639 62.8098 52.4733 62.9136 51.994C63.0175 51.5146 62.9485 50.9625 62.7066 50.3375C62.5688 49.9816 62.3934 49.6703 62.1803 49.4034C61.9759 49.1332 61.7276 48.9299 61.4352 48.7936C61.1482 48.6452 60.8163 48.5741 60.4394 48.5802C60.0712 48.583 59.6571 48.6735 59.1971 48.8515L55.4082 50.3182Z" fill="white"/>
<path d="M68.379 49.0577L70.751 48.5026C70.5064 47.4575 70.0789 46.7572 69.4685 46.4016C68.8651 46.0347 68.009 45.981 66.9003 46.2405C65.8279 46.4914 65.0888 46.9375 64.6829 47.5789C64.277 48.2202 64.19 49.0362 64.4218 50.0268C64.5557 50.5993 64.7596 51.0405 65.0334 51.3502C65.3162 51.6579 65.6286 51.8867 65.9704 52.0368C66.3214 52.1847 66.6855 52.2864 67.0627 52.342C67.4399 52.3975 67.7899 52.4594 68.1126 52.5276C68.4423 52.5847 68.7249 52.6863 68.9604 52.8325C69.2028 52.9675 69.3613 53.194 69.4357 53.5121C69.4974 53.7756 69.4768 54.0153 69.3739 54.2311C69.2801 54.4447 69.1015 54.5824 68.8379 54.644C68.5925 54.7015 68.3735 54.6664 68.1807 54.539C67.9858 54.4025 67.8394 54.1252 67.7416 53.7072L67.6874 53.4754L65.2337 54.0496L65.3134 54.3904C65.4325 54.8993 65.6051 55.3094 65.8314 55.6207C66.0576 55.9321 66.3325 56.1649 66.6562 56.3192C66.9868 56.4623 67.3616 56.5279 67.7806 56.5162C68.2109 56.5113 68.6895 56.4473 69.2166 56.3239C70.3344 56.0624 71.1345 55.6307 71.6167 55.029C72.0968 54.4182 72.2157 53.5948 71.9733 52.5588C71.8351 51.9681 71.6189 51.5155 71.3248 51.2009C71.0377 50.875 70.7131 50.6347 70.3509 50.4798C69.9888 50.3249 69.6145 50.2208 69.2282 50.1674C68.8398 50.1049 68.4751 50.0417 68.1342 49.9776C67.7933 49.9136 67.4971 49.8152 67.2455 49.6823C67.001 49.5383 66.8414 49.3072 66.767 48.9891C66.716 48.771 66.7339 48.5608 66.8207 48.3583C66.9054 48.1468 67.0841 48.0091 67.3567 47.9453C67.6021 47.8879 67.8083 47.9499 67.9753 48.1313C68.1403 48.3036 68.2568 48.5351 68.3248 48.8259L68.379 49.0577Z" fill="white"/>
<path d="M75.1336 50.0845C75.0713 49.4154 75.0291 48.8616 75.007 48.4231C74.9841 47.9753 74.9884 47.6187 75.0199 47.3533C75.0607 47.087 75.1321 46.8976 75.2341 46.785C75.3454 46.6715 75.4986 46.6057 75.6938 46.5875C75.889 46.5694 76.0471 46.6062 76.1681 46.698C76.2984 46.789 76.4036 46.962 76.4836 47.217C76.5729 47.4712 76.6476 47.8204 76.7077 48.2647C76.7669 48.6998 76.8277 49.2519 76.89 49.921C76.9523 50.5901 76.995 51.1485 77.0179 51.5963C77.04 52.0348 77.0306 52.3872 76.9898 52.6535C76.9583 52.9189 76.8869 53.1083 76.7756 53.2218C76.6736 53.3344 76.525 53.3998 76.3298 53.418C76.1347 53.4362 75.9719 53.3998 75.8416 53.3088C75.7206 53.2169 75.6154 53.0439 75.5261 52.7898C75.4462 52.5348 75.3765 52.1897 75.3173 51.7547C75.2571 51.3104 75.1959 50.7536 75.1336 50.0845ZM72.4572 50.3338C72.5437 51.2631 72.6781 52.052 72.8604 52.7006C73.0418 53.3398 73.2913 53.8556 73.6091 54.2478C73.9259 54.6308 74.3203 54.8893 74.7921 55.0235C75.2639 55.1576 75.8297 55.194 76.4895 55.1326C77.1493 55.0711 77.6987 54.9309 78.1376 54.7119C78.5765 54.493 78.9163 54.1661 79.1571 53.7312C79.3969 53.287 79.547 52.7341 79.6072 52.0723C79.6666 51.4013 79.653 50.6011 79.5664 49.6718C79.4799 48.7424 79.3459 47.9581 79.1646 47.3189C78.9823 46.6703 78.7327 46.1546 78.4159 45.7716C78.0981 45.3794 77.7029 45.1116 77.2303 44.9681C76.7567 44.8153 76.1901 44.7697 75.5302 44.8311C74.8704 44.8926 74.3219 45.0421 73.8847 45.2796C73.4467 45.5079 73.1077 45.8441 72.8679 46.2883C72.6272 46.7231 72.4771 47.2761 72.4177 47.9471C72.3575 48.6089 72.3707 49.4044 72.4572 50.3338Z" fill="white"/>
<path d="M81.1567 44.6277L80.6569 54.6237L83.0929 54.7455L83.4016 48.5715L83.4296 48.5729L84.8569 54.8337L87.7129 54.9765L88.2127 44.9805L85.7767 44.8587L85.4687 51.0187L85.4407 51.0173L84.0687 44.7733L81.1567 44.6277Z" fill="white"/>
<path d="M93.3215 47.9394L91.807 51.9656L93.2359 52.2449L93.3489 47.9447L93.3215 47.9394ZM95.3349 46.2503L95.8081 56.5279L93.0875 55.9961L93.1622 54.2276L91.1287 53.8301L90.5319 55.4966L87.8526 54.9729L92.1197 45.6218L95.3349 46.2503Z" fill="white"/>
<path d="M99.063 47.1605L95.9044 56.6444L101.417 58.4802L102.089 56.4612L99.0474 55.4482L101.534 47.9833L99.063 47.1605Z" fill="white"/>
<path d="M105.743 49.4495L101.744 58.6458L104.14 59.6874L108.138 50.4911L105.743 49.4495Z" fill="white"/>
<path d="M105.574 58.2748L104.665 59.9157L110.065 62.908L111.097 61.0466L108.305 59.4996L114.001 55.8054L114.91 54.1645L109.693 51.274L108.662 53.1353L111.221 54.5535L105.574 58.2748Z" fill="white"/>
<path d="M116.484 55.123L110.586 63.2197L115.485 66.7881L116.741 65.0644L113.951 63.0324L115.124 61.4221L117.641 63.2559L118.847 61.6002L116.33 59.7665L117.338 58.383L120.025 60.3406L121.281 58.617L116.484 55.123Z" fill="white"/>
<path d="M44.41 56.7002C44.7586 56.4349 45.1562 56.2411 45.58 56.1302C45.9485 56.0451 46.3315 56.0451 46.7 56.1302C47.0623 56.216 47.4028 56.376 47.7 56.6002C48.0279 56.8502 48.3177 57.1466 48.56 57.4802C48.8368 57.8041 49.0429 58.1821 49.1652 58.5902C49.2875 58.9984 49.3232 59.4275 49.27 59.8502C49.0534 60.7121 48.5125 61.4573 47.76 61.9302L47.03 62.4702L49.29 65.5302L47.19 67.0802L41.26 59.0302L44.41 56.7002ZM46.31 60.7002C46.4249 60.6228 46.5224 60.5224 46.5964 60.4053C46.6704 60.2883 46.7193 60.1572 46.74 60.0202C46.7383 59.6891 46.6176 59.3697 46.4 59.1202C45.92 58.4602 45.4 58.3402 44.87 58.7302L44.47 59.0302L45.92 61.0302L46.31 60.7002Z" fill="white"/>
<path d="M53.49 51.1904L54.49 53.0504L51.58 54.7004L52.41 56.2004L55.13 54.7004L56.13 56.4904L53.41 57.9904L54.41 59.7304L57.41 58.0704L58.41 59.9305L53.11 62.8604L48.27 54.1104L53.49 51.1904Z" fill="white"/>
<path d="M59.18 48.7898C59.5761 48.6224 60.0001 48.5309 60.43 48.5198C60.7746 48.5041 61.1179 48.5727 61.43 48.7198C61.7226 48.8687 61.9787 49.0804 62.18 49.3398C62.4015 49.6256 62.5801 49.9423 62.71 50.2798C62.9399 50.801 63.0096 51.3788 62.91 51.9398C62.8487 52.193 62.7328 52.4298 62.5704 52.6336C62.408 52.8374 62.2031 53.0034 61.97 53.1198C62.2044 53.0274 62.4577 52.9927 62.7083 53.0189C62.959 53.045 63.1996 53.131 63.41 53.2698C63.8283 53.6286 64.1397 54.0957 64.31 54.6198L64.62 55.4098L64.77 55.7898C64.77 55.9198 64.87 56.0498 64.92 56.1598C64.9701 56.2633 65.0269 56.3635 65.09 56.4598C65.1274 56.535 65.1782 56.6028 65.24 56.6598L65.4 56.7698C65.4684 56.8065 65.543 56.8302 65.62 56.8398L65.68 56.9698L63.09 57.9698C62.9699 57.8642 62.8685 57.7391 62.79 57.5998C62.69 57.4398 62.61 57.2898 62.53 57.1298C62.45 56.9698 62.38 56.8098 62.32 56.6598C62.2615 56.5401 62.2114 56.4164 62.17 56.2898L61.92 55.6598C61.8427 55.4414 61.7456 55.2305 61.63 55.0298C61.5628 54.8887 61.4635 54.7655 61.34 54.6698C61.2451 54.5977 61.1291 54.559 61.01 54.5598C60.8727 54.56 60.7368 54.5872 60.61 54.6398L59.97 54.8898L61.42 58.6198L58.99 59.5598L55.38 50.2498L59.18 48.7898ZM59.82 53.0798C59.9681 53.0353 60.1039 52.957 60.2167 52.8512C60.3295 52.7453 60.4162 52.6148 60.47 52.4698C60.5498 52.1705 60.5251 51.853 60.4 51.5698C60.3143 51.2608 60.114 50.9962 59.84 50.8298C59.5469 50.7325 59.2274 50.7541 58.95 50.8898L58.48 51.0698L59.33 53.2698L59.82 53.0798Z" fill="white"/>
<path d="M68.32 48.8296C68.2678 48.5692 68.147 48.3275 67.97 48.1296C67.8946 48.0436 67.7961 47.981 67.6863 47.9491C67.5764 47.9172 67.4598 47.9174 67.35 47.9496C67.2338 47.9663 67.1239 48.0129 67.031 48.0848C66.9381 48.1566 66.8654 48.2513 66.82 48.3596C66.7323 48.5575 66.7113 48.7786 66.76 48.9896C66.7863 49.1334 66.8438 49.2697 66.9284 49.389C67.0131 49.5082 67.1229 49.6074 67.25 49.6796C67.5243 49.8286 67.8218 49.93 68.13 49.9796C68.47 50.0496 68.84 50.1096 69.22 50.1596C69.6079 50.2215 69.9872 50.3289 70.35 50.4796C70.7308 50.6457 71.0717 50.8912 71.35 51.1996C71.6753 51.5912 71.8955 52.0593 71.99 52.5596C72.1251 52.9711 72.1629 53.4083 72.1005 53.8369C72.038 54.2655 71.877 54.6737 71.63 55.0296C70.998 55.7192 70.1529 56.177 69.23 56.3296C68.7611 56.4433 68.2821 56.5103 67.8 56.5296C67.4151 56.5391 67.0327 56.464 66.68 56.3096C66.3425 56.1646 66.0542 55.925 65.85 55.6196C65.5954 55.2489 65.4185 54.8305 65.33 54.3896L65.25 54.0496L67.7 53.4796L67.76 53.7096C67.8026 54.03 67.9587 54.3245 68.2 54.5396C68.2937 54.6042 68.4005 54.6476 68.5128 54.6666C68.6251 54.6856 68.7402 54.6798 68.85 54.6496C68.969 54.6297 69.0813 54.581 69.1771 54.5078C69.273 54.4346 69.3495 54.3391 69.4 54.2296C69.4763 53.999 69.4763 53.7501 69.4 53.5196C69.376 53.3775 69.3216 53.2423 69.2405 53.1232C69.1593 53.0041 69.0534 52.9039 68.93 52.8296C68.6651 52.6815 68.3781 52.5768 68.08 52.5196C67.76 52.4596 67.41 52.3996 67.08 52.3496C66.7051 52.2923 66.3389 52.1881 65.99 52.0396C65.6331 51.8807 65.3156 51.6451 65.06 51.3496C64.7443 50.9696 64.5309 50.5152 64.44 50.0296C64.3142 49.625 64.2723 49.199 64.317 48.7777C64.3618 48.3564 64.4921 47.9487 64.7 47.5796C65.2332 46.8564 66.0317 46.3744 66.92 46.2396C67.7661 45.9664 68.6843 46.0236 69.49 46.3996C69.8352 46.6462 70.1267 46.9604 70.3467 47.3231C70.5668 47.6858 70.7108 48.0895 70.77 48.5096L68.4 49.0596L68.32 48.8296Z" fill="white"/>
<path d="M72.41 47.95C72.445 47.3717 72.5982 46.8067 72.86 46.29C73.0863 45.8645 73.4345 45.5163 73.86 45.29C74.3762 45.0374 74.9366 44.888 75.51 44.85C76.0797 44.781 76.6574 44.8252 77.21 44.98C77.6753 45.121 78.0868 45.3999 78.39 45.78C78.7456 46.2385 79.0011 46.7665 79.14 47.33C79.5256 48.882 79.6739 50.4835 79.58 52.08C79.545 52.6582 79.3918 53.2232 79.13 53.74C78.9072 54.1681 78.5581 54.5172 78.13 54.74C77.6107 54.9808 77.0512 55.1232 76.48 55.16C75.9113 55.2249 75.3356 55.1877 74.78 55.05C74.3145 54.9204 73.9016 54.6475 73.6 54.27C73.2464 53.8102 72.9911 53.2826 72.85 52.72C72.645 51.9467 72.5078 51.1571 72.44 50.36C72.3607 49.559 72.3507 48.7527 72.41 47.95ZM75.31 51.75C75.342 52.1042 75.4022 52.4553 75.49 52.8C75.5417 52.9988 75.6535 53.1769 75.81 53.3099C75.8782 53.3601 75.956 53.3957 76.0386 53.4147C76.1212 53.4336 76.2067 53.4354 76.29 53.42C76.4586 53.4155 76.6192 53.3477 76.74 53.23C76.8674 53.0663 76.9408 52.8671 76.95 52.66C76.9871 52.3076 76.9871 51.9523 76.95 51.6C76.95 51.15 76.89 50.6 76.83 49.93C76.77 49.26 76.7 48.7 76.64 48.26C76.5956 47.9218 76.5253 47.5875 76.43 47.26C76.374 47.0601 76.2632 46.88 76.11 46.74C75.966 46.6526 75.7977 46.6141 75.63 46.6303C75.4624 46.6465 75.3045 46.7166 75.18 46.83C75.049 46.9924 74.9721 47.1917 74.96 47.4C74.9329 47.7528 74.9329 48.1072 74.96 48.46C74.96 48.91 75.03 49.46 75.09 50.13C75.15 50.8 75.25 51.31 75.31 51.75Z" fill="white"/>
<path d="M84.05 44.8102L85.42 51.0402L85.73 44.8902L88.16 45.0102L87.67 55.0102L84.81 54.8702L83.38 48.6202L83.07 54.7902L80.65 54.7002L81.14 44.7002L84.05 44.8102Z" fill="white"/>
<path d="M95.33 46.2501L95.8 56.5301L93.08 56.0001L93.16 54.2301L91.16 53.8301L90.49 55.5001L87.81 54.9701L92.08 45.6201L95.33 46.2501ZM93.33 47.9401L91.81 51.9401L93.24 52.2201L93.36 47.9201L93.33 47.9401Z" fill="white"/>
<path d="M101.49 47.9897L99.01 55.4497L102.01 56.4497L101.33 58.4497L95.9 56.6997L99.06 47.2197L101.49 47.9897Z" fill="white"/>
<path d="M108.11 50.5801L104.11 59.7401L101.72 58.7401L105.72 49.5801L108.11 50.5801Z" fill="white"/>
<path d="M111.22 54.5603L108.66 53.1503L109.66 51.2803L114.88 54.1803L113.97 55.8203L108.28 59.5103L111.07 61.0603L110.07 62.9203L104.67 59.9203L105.57 58.2803L111.22 54.5603Z" fill="white"/>
<path d="M121.23 58.6999L119.98 60.4199L117.3 58.4699L116.3 59.8499L118.82 61.6799L117.61 63.3299L115.1 61.4999L113.93 63.1099L116.72 65.1099L115.49 66.8099L110.59 63.2499L116.47 55.1699L121.23 58.6999Z" fill="white"/>
<path d="M76.93 75.8701L77.93 81.7901L78.93 75.8701H82.65V85.8701H80.34V78.4201L78.96 85.8701H77.05L75.67 78.4201V85.8701H73.2V75.8701H76.93Z" fill="#5B45E1"/>
<path d="M89.84 75.8701V78.0001H86.49V79.7001H89.6V81.7501H86.49V83.7501H89.93V85.8801H83.93V75.8801L89.84 75.8701Z" fill="#5B45E1"/>
<path d="M45.37 68.6998L28.62 63.2598L27.04 64.8498L43.72 70.2698C44.26 69.7698 44.81 69.2498 45.37 68.6998Z" fill="white"/>
<path d="M119.11 70.3L135.79 64.88L134.2 63.29L117.49 68.7C118.02 69.25 118.57 69.77 119.11 70.3Z" fill="white"/>
</g>
<defs>
<clipPath id="clip0_637_73">
<rect width="162.99" height="162.99" fill="white"/>
</clipPath>
</defs>
</svg>
