<svg width="179" height="179" viewBox="0 0 179 179" fill="none" xmlns="http://www.w3.org/2000/svg">
<g filter="url(#filter0_d_513_1202)">
<rect x="29.8757" y="10" width="140" height="140" transform="rotate(8 29.8757 10)" fill="black"/>
</g>
<path d="M35.8375 126.785C36.5399 126.883 37.1747 127.145 37.7417 127.57C38.3105 127.983 38.7328 128.573 39.0086 129.341C39.2862 130.096 39.3492 131.013 39.1976 132.092L38.8882 134.293L43.9306 135.002L43.5604 137.636L30.4275 135.79L31.1071 130.955C31.2499 129.939 31.5471 129.098 31.9988 128.433C32.4505 127.767 33.0083 127.302 33.6723 127.037C34.3381 126.759 35.0598 126.675 35.8375 126.785ZM37.0556 131.906C37.1578 131.179 37.0706 130.616 36.7938 130.219C36.5045 129.82 36.0588 129.579 35.4567 129.494C34.1773 129.314 33.4371 129.939 33.2361 131.369L32.9426 133.458L36.7621 133.995L37.0556 131.906ZM41.1014 115.679C41.4777 115.732 41.8128 115.804 42.1068 115.897L41.0359 123.517C41.7973 123.56 42.4239 123.379 42.9156 122.975C43.4073 122.571 43.7007 122.03 43.7959 121.353C43.9334 120.374 43.611 119.619 42.8288 119.087L43.2281 116.246C44.1893 116.688 44.936 117.382 45.4684 118.326C45.9883 119.269 46.1609 120.361 45.9864 121.603C45.8454 122.607 45.4989 123.479 44.9471 124.22C44.3845 124.947 43.6638 125.479 42.785 125.816C41.908 126.14 40.9364 126.227 39.8702 126.077C38.7914 125.926 37.8753 125.573 37.1216 125.02C36.368 124.466 35.8272 123.763 35.4993 122.911C35.1713 122.059 35.0796 121.119 35.2242 120.091C35.3634 119.1 35.7009 118.245 36.2367 117.528C36.7743 116.797 37.4681 116.274 38.3183 115.959C39.1577 115.629 40.0854 115.536 41.1014 115.679ZM39.9654 118.301C39.2863 118.218 38.7125 118.387 38.2441 118.807C37.7632 119.226 37.4743 119.78 37.3773 120.47C37.2857 121.122 37.4088 121.702 37.7467 122.21C38.0739 122.704 38.5816 123.05 39.2699 123.249L39.9654 118.301ZM38.3818 110.592C37.8775 110.176 37.5065 109.676 37.2687 109.093C37.0327 108.497 36.964 107.847 37.0627 107.145L39.8286 107.534L39.7307 108.23C39.6144 109.058 39.7207 109.712 40.0496 110.193C40.3802 110.662 41.0285 110.964 41.9943 111.1L47.1873 111.83L46.8171 114.464L36.3935 112.999L36.7637 110.365L38.3818 110.592ZM48.624 102.835C48.5042 103.688 48.2461 104.432 47.8499 105.067C47.4411 105.701 46.9451 106.181 46.3618 106.508C45.7804 106.823 45.1671 106.954 44.5221 106.902L44.895 104.249C45.3034 104.255 45.6631 104.108 45.9742 103.806C46.2869 103.492 46.4795 103.078 46.5517 102.563C46.6222 102.062 46.5765 101.659 46.4146 101.355C46.2545 101.038 46.0176 100.857 45.704 100.813C45.3654 100.766 45.0898 100.906 44.8774 101.234C44.6542 101.548 44.3893 102.068 44.0829 102.792C43.7854 103.543 43.5011 104.156 43.2299 104.629C42.9605 105.09 42.5932 105.473 42.1281 105.779C41.6649 106.072 41.082 106.169 40.3796 106.07C39.8026 105.989 39.2987 105.752 38.8678 105.359C38.4388 104.954 38.1295 104.424 37.9399 103.771C37.7521 103.105 37.7172 102.351 37.8354 101.511C38.0099 100.269 38.4627 99.3224 39.1939 98.6705C39.9125 98.0168 40.804 97.7263 41.8682 97.7992L41.5139 100.32C41.0946 100.3 40.7438 100.43 40.4614 100.71C40.1683 100.975 39.9855 101.366 39.9133 101.88C39.8463 102.356 39.8821 102.739 40.0207 103.027C40.161 103.302 40.388 103.462 40.7016 103.506C41.0528 103.556 41.3471 103.418 41.5846 103.093C41.8096 102.767 42.0682 102.247 42.3603 101.533C42.6543 100.807 42.9359 100.213 43.2054 99.7523C43.4748 99.2913 43.8475 98.9152 44.3233 98.6239C44.7884 98.3183 45.3667 98.2077 46.0584 98.2921C46.6604 98.3767 47.176 98.6219 47.6051 99.0275C48.0359 99.4207 48.3452 99.9502 48.533 100.616C48.71 101.268 48.7404 102.008 48.624 102.835ZM50.1628 91.8865C50.0218 92.89 49.6753 93.7622 49.1235 94.5033C48.5591 95.2426 47.8366 95.787 46.9561 96.1366C46.0773 96.4735 45.1048 96.5671 44.0386 96.4173C42.9725 96.2674 42.0643 95.9032 41.3142 95.3245C40.5659 94.7332 40.0295 93.9991 39.7051 93.1221C39.3681 92.2433 39.2701 91.3022 39.4111 90.2987C39.5522 89.2952 39.9058 88.4176 40.4719 87.6657C41.0255 86.9121 41.7426 86.3605 42.6231 86.011C43.5054 85.6489 44.4797 85.5428 45.5459 85.6927C46.6121 85.8425 47.5185 86.2193 48.265 86.8231C49.0134 87.4143 49.5551 88.1556 49.8903 89.0469C50.2148 89.924 50.3056 90.8705 50.1628 91.8865ZM47.8674 91.5639C47.9343 91.0872 47.884 90.6261 47.7164 90.1804C47.538 89.7204 47.2344 89.3324 46.8056 89.0163C46.3767 88.7002 45.8299 88.4955 45.1651 88.402C44.1742 88.2628 43.3783 88.4195 42.7774 88.8723C42.1658 89.3108 41.8071 89.9063 41.7013 90.6589C41.5955 91.4115 41.7762 92.0829 42.2433 92.673C42.6996 93.2487 43.4232 93.6063 44.4141 93.7455C45.4051 93.8848 46.2046 93.7477 46.8127 93.3343C47.41 92.9066 47.7616 92.3165 47.8674 91.5639ZM41.2749 77.1741C41.4494 75.9323 41.9855 74.9844 42.8833 74.3303C43.7685 73.6745 44.9136 73.4453 46.3184 73.6427L52.4333 74.5021L52.0631 77.1362L46.3057 76.3271C45.4779 76.2107 44.8153 76.3286 44.3181 76.6809C43.8084 77.0313 43.5033 77.5641 43.4028 78.279C43.3006 79.0066 43.4452 79.6153 43.8369 80.1052C44.2177 80.5809 44.8221 80.8768 45.6499 80.9932L51.4074 81.8024L51.0372 84.4365L40.6136 82.9715L40.9838 80.3374L42.282 80.5199C41.8798 80.1052 41.5912 79.6105 41.4161 79.0359C41.2303 78.447 41.1832 77.8264 41.2749 77.1741ZM47.4487 71.8803C46.3951 71.7322 45.4897 71.3939 44.7325 70.8654C43.9771 70.3244 43.4302 69.6655 43.0916 68.8888C42.7549 68.0996 42.6491 67.2597 42.7742 66.3691C42.8835 65.5914 43.1355 64.9361 43.5302 64.4032C43.9266 63.8577 44.3879 63.4429 44.9139 63.1587L43.4275 62.9498L43.8003 60.2968L54.2239 61.7618L53.851 64.4147L52.327 64.2005C52.7686 64.6079 53.1102 65.1356 53.3517 65.7835C53.5824 66.4171 53.6431 67.1228 53.5338 67.9005C53.4104 68.7785 53.0718 69.5496 52.518 70.2136C51.966 70.8651 51.2523 71.3468 50.377 71.6587C49.491 71.9563 48.5149 72.0302 47.4487 71.8803ZM48.6392 63.6822C47.9995 63.5923 47.4363 63.6411 46.9495 63.8285C46.4501 64.0141 46.0513 64.3034 45.753 64.6964C45.4422 65.0876 45.2524 65.5278 45.1837 66.017C45.1149 66.5062 45.1706 66.9745 45.3508 67.422C45.5309 67.8694 45.8345 68.2574 46.2616 68.5861C46.6779 68.9004 47.1997 69.1016 47.8268 69.1898C48.454 69.2779 49.0235 69.23 49.5355 69.0462C50.0366 68.848 50.4417 68.5595 50.7507 68.1809C51.0615 67.7897 51.2504 67.3557 51.3174 66.8791C51.3862 66.3899 51.3313 65.9153 51.1529 65.4553C50.962 64.9936 50.6584 64.6056 50.2421 64.2912C49.8132 63.9751 49.279 63.7721 48.6392 63.6822ZM41.0404 54.5418L54.9636 56.4985L54.5934 59.1327L40.6702 57.1759L41.0404 54.5418ZM43.8597 50.8643C43.7944 51.3284 43.5955 51.6969 43.263 51.97C42.9196 52.2287 42.5284 52.3272 42.0894 52.2655C41.6504 52.2038 41.3078 52.0022 41.0616 51.6606C40.8046 51.3047 40.7087 50.8947 40.774 50.4306C40.8392 49.9665 41.0435 49.6051 41.3868 49.3463C41.7194 49.0733 42.1052 48.9676 42.5442 49.0293C42.9832 49.091 43.3312 49.2998 43.5882 49.6557C43.8344 49.9973 43.9249 50.4002 43.8597 50.8643ZM45.2839 49.7405L55.7075 51.2055L55.3373 53.8396L44.9137 52.3747L45.2839 49.7405ZM54.2559 45.8341L54.909 41.1868L57.0728 41.4909L55.9992 49.1298L53.8731 48.831L48.3793 43.4157L47.742 47.9501L45.5783 47.646L46.6413 40.0824L48.7674 40.3812L54.2559 45.8341ZM53.2916 28.9409C53.6679 28.9938 54.003 29.0665 54.297 29.159L53.2261 36.7791C53.9875 36.8221 54.6141 36.6416 55.1058 36.2374C55.5975 35.8332 55.8909 35.2925 55.9861 34.6151C56.1236 33.6368 55.8012 32.8815 55.019 32.3495L55.4183 29.5084C56.3795 29.9505 57.1262 30.6438 57.6586 31.5885C58.1785 32.5313 58.3511 33.6236 58.1766 34.8654C58.0356 35.8689 57.6891 36.7412 57.1373 37.4823C56.5747 38.209 55.854 38.7409 54.9752 39.0779C54.0982 39.4023 53.1265 39.4896 52.0604 39.3398C50.9816 39.1882 50.0655 38.8356 49.3118 38.282C48.5582 37.7283 48.0174 37.0256 47.6895 36.1736C47.3615 35.3217 47.2698 34.3815 47.4144 33.3529C47.5536 32.362 47.8911 31.5076 48.4269 30.7899C48.9644 30.0596 49.6583 29.5367 50.5085 29.2213C51.3479 28.8916 52.2756 28.7981 53.2916 28.9409ZM52.1556 31.5633C51.4764 31.4807 50.9027 31.6495 50.4343 32.0697C49.9534 32.4882 49.6645 33.0424 49.5675 33.7323C49.4758 34.3845 49.599 34.9646 49.9369 35.4726C50.264 35.9663 50.7718 36.3126 51.4601 36.5117L52.1556 31.5633Z" fill="white"/>
<path d="M106.924 111.46L101.843 147.609L93.0379 146.371L96.0847 124.692L84.9533 145.235L77.8472 144.236L72.7652 121.363L69.7111 143.093L60.9057 141.855L65.9861 105.707L76.3878 107.169L83.015 133.62L96.5735 110.005L106.924 111.46ZM137.346 137.475C137.23 138.299 137.058 139.15 136.829 140.028L116.901 137.227C116.788 139.032 117.161 140.485 118.021 141.586C118.921 142.657 120.109 143.297 121.585 143.504C123.782 143.813 125.44 143.101 126.559 141.368L135.931 142.685C135.185 144.506 134.071 146.082 132.588 147.414C131.14 148.751 129.412 149.715 127.403 150.308C125.394 150.901 123.222 151.034 120.888 150.706C118.073 150.31 115.651 149.357 113.623 147.847C111.595 146.336 110.12 144.379 109.198 141.974C108.275 139.568 108.024 136.873 108.444 133.886C108.864 130.899 109.831 128.375 111.346 126.312C112.896 124.254 114.853 122.779 117.219 121.886C119.585 120.994 122.193 120.748 125.042 121.148C127.823 121.539 130.213 122.47 132.211 123.941C134.21 125.412 135.658 127.313 136.556 129.645C137.488 131.981 137.751 134.592 137.346 137.475ZM128.66 133.891C128.872 132.381 128.526 131.107 127.622 130.07C126.717 129.033 125.493 128.405 123.948 128.188C122.472 127.981 121.158 128.234 120.008 128.947C118.892 129.666 118.102 130.797 117.64 132.343L128.66 133.891Z" fill="white"/>
<defs>
<filter id="filter0_d_513_1202" x="0.391602" y="0" width="178.122" height="178.122" filterUnits="userSpaceOnUse" color-interpolation-filters="sRGB">
<feFlood flood-opacity="0" result="BackgroundImageFix"/>
<feColorMatrix in="SourceAlpha" type="matrix" values="0 0 0 0 0 0 0 0 0 0 0 0 0 0 0 0 0 0 127 0" result="hardAlpha"/>
<feOffset/>
<feGaussianBlur stdDeviation="5"/>
<feComposite in2="hardAlpha" operator="out"/>
<feColorMatrix type="matrix" values="0 0 0 0 0 0 0 0 0 0 0 0 0 0 0 0 0 0 0.25 0"/>
<feBlend mode="normal" in2="BackgroundImageFix" result="effect1_dropShadow_513_1202"/>
<feBlend mode="normal" in="SourceGraphic" in2="effect1_dropShadow_513_1202" result="shape"/>
</filter>
</defs>
</svg>
