<svg width="174" height="174" viewBox="0 0 174 174" fill="none" xmlns="http://www.w3.org/2000/svg">
<path d="M160.861 100.024L143.991 102.016L157.717 112.041L140.753 111.224L152.634 123.389L136.038 119.762L145.741 133.735L129.976 127.408L137.261 142.801L122.745 133.965L127.409 150.343L114.535 139.24L116.464 156.163L105.587 143.093L104.707 160.112L96.1388 145.411L92.4606 162.055L86.4381 146.129L80.0699 161.935L76.733 145.228L67.8829 159.787L67.3047 142.756L56.1986 155.661L58.4348 138.763L45.3462 149.645L50.3496 133.353L35.6487 141.913L43.2503 126.67L27.3634 132.702L37.348 118.907L20.6848 122.246L32.7873 110.271L15.8082 110.825L29.7141 101.015L12.8789 98.7465L28.2037 91.3787L11.9832 86.3445L28.3108 81.6187L13.1395 73.9768L30.0095 71.9847L16.2829 61.9595L33.2485 62.7678L21.3664 50.6118L37.9635 54.2297L28.2604 40.2565L44.0173 46.5826L36.7387 31.1994L51.2552 40.0357L46.5908 23.658L59.4655 34.761L57.5372 17.8287L68.4134 30.908L69.2928 13.8887L77.8628 28.5808L81.5395 11.9455L87.562 27.8713L93.9302 12.0654L97.2671 28.773L106.117 14.2143L106.695 31.2451L117.802 18.3395L115.567 35.2291L128.654 24.3556L123.651 40.6478L138.353 32.0787L130.75 47.3303L146.646 41.3003L136.652 55.0935L153.315 51.755L141.214 63.721L158.192 63.176L144.288 72.9775L161.121 75.2543L145.798 82.6133L162.017 87.6564L145.689 92.3821L160.861 100.024Z" fill="#CBFA12"/>
<path d="M109.15 44.0582C109.396 44.4087 109.546 44.8178 109.585 45.2446C109.623 45.6713 109.547 46.1006 109.366 46.4886L109.261 46.7248C109.084 47.12 108.805 47.4604 108.452 47.7102C108.103 47.9579 107.695 48.1094 107.27 48.1493C106.844 48.1892 106.416 48.1162 106.028 47.9376L104.347 47.1864L103.219 49.7802L101.003 48.7709L104.308 41.4942L108.159 43.2557C108.556 43.4282 108.898 43.7056 109.15 44.0582ZM105.139 45.5706L106.113 46.0151C106.197 46.059 106.291 46.0831 106.386 46.0857C106.481 46.0884 106.576 46.0694 106.663 46.0303C106.829 45.9628 106.963 45.8329 107.035 45.6683L107.059 45.536C107.132 45.3753 107.145 45.1931 107.094 45.0238C107.067 44.9303 107.018 44.8444 106.952 44.7729C106.886 44.7013 106.805 44.6459 106.714 44.611L105.741 44.1665L105.139 45.5706Z" fill="black"/>
<path d="M115.698 50.0164L112.93 48.1275L112.272 49.0848L114.941 50.911L113.939 52.3807L111.243 50.5499L110.518 51.623L113.285 53.5207L112.403 55.23L107.469 51.8493L111.96 45.2458L116.895 48.6265L115.698 50.0164Z" fill="black"/>
<path d="M122.304 53.9919C122.425 54.3353 122.456 54.704 122.396 55.0633C122.34 55.4284 122.166 55.7652 121.901 56.0221C121.699 56.2253 121.455 56.3811 121.186 56.4782C120.912 56.5844 120.62 56.6319 120.327 56.6178C120.054 56.61 119.789 56.5222 119.565 56.3652L119.555 56.4181C119.756 56.7844 119.813 57.213 119.715 57.6197C119.598 58.0602 119.361 58.4594 119.031 58.7727C118.809 58.9959 118.616 59.246 118.456 59.5172C118.392 59.6231 118.358 59.7446 118.359 59.8683C118.36 59.992 118.394 60.1131 118.459 60.2182L118.127 60.5599C117.694 60.3626 117.303 60.0836 116.975 59.7383C116.638 59.4579 116.412 59.0666 116.336 58.634C116.333 58.4209 116.378 58.2099 116.467 58.0163C116.556 57.8227 116.687 57.6514 116.85 57.5149C117.159 57.2273 117.408 56.8817 117.583 56.4979C117.65 56.3311 117.66 56.1469 117.612 55.9739C117.564 55.8009 117.46 55.6488 117.316 55.5412L116.837 55.0745L114.635 57.2788L112.935 55.6055L118.476 49.8875L121.684 53.0365C121.963 53.3009 122.176 53.6284 122.304 53.9919ZM118.047 53.8143L118.928 54.6792C118.981 54.7332 119.044 54.7762 119.113 54.8056C119.183 54.835 119.258 54.8503 119.333 54.8507C119.41 54.8495 119.487 54.8328 119.558 54.8015C119.629 54.7703 119.693 54.7252 119.746 54.6688L119.823 54.5914C119.879 54.5381 119.923 54.4736 119.953 54.4021C119.983 54.3306 119.997 54.2536 119.996 54.1762C119.996 54.0983 119.981 54.0211 119.949 53.9498C119.918 53.8785 119.872 53.8146 119.815 53.7622L118.987 52.9066L118.047 53.8143Z" fill="black"/>
<path d="M127.55 61.2119C127.559 61.5703 127.475 61.925 127.306 62.2413C127.138 62.5576 126.89 62.8246 126.588 63.0162L126.474 63.0962L125.191 61.269C125.279 61.2136 125.353 61.1391 125.407 61.0511C125.462 60.9631 125.496 60.8639 125.508 60.7608C125.521 60.4992 125.433 60.2427 125.262 60.0444C125.131 59.8319 124.951 59.6537 124.737 59.5243C124.672 59.4869 124.598 59.4678 124.523 59.469C124.448 59.4701 124.374 59.4915 124.31 59.5309C124.236 59.5858 124.18 59.6607 124.147 59.7467C124.114 59.8328 124.106 59.9265 124.125 60.0167C124.173 60.3064 124.261 60.5881 124.385 60.854L124.792 61.8355C125.35 63.1982 125.161 64.22 124.198 64.8963C123.89 65.1548 123.522 65.3314 123.128 65.4098C122.734 65.4881 122.326 65.4658 121.943 65.3447C121.097 64.9887 120.382 64.3797 119.894 63.6006C119.568 63.1236 119.33 62.5918 119.191 62.0304C119.048 61.537 119.04 61.0141 119.168 60.5163C119.319 60.0233 119.634 59.5971 120.061 59.3092L120.175 59.2292L120.296 59.1596L121.594 60.9987L121.472 61.0771C121.38 61.1372 121.301 61.2166 121.243 61.3099C121.184 61.4032 121.146 61.5082 121.132 61.6175C121.122 61.9167 121.227 62.2081 121.423 62.433C121.573 62.6915 121.784 62.9097 122.036 63.0688C122.102 63.1061 122.177 63.1244 122.253 63.1217C122.328 63.119 122.402 63.0954 122.465 63.0534C122.542 62.9942 122.598 62.913 122.628 62.8206C122.657 62.7282 122.657 62.629 122.629 62.5365C122.539 62.2028 122.42 61.8775 122.274 61.5643C122.066 61.0975 121.897 60.6143 121.768 60.1195C121.66 59.7052 121.665 59.2696 121.782 58.8576C121.942 58.3718 122.265 57.9564 122.696 57.6816C123.096 57.3809 123.587 57.2295 124.086 57.2536C124.59 57.2821 125.075 57.4529 125.486 57.7461C125.967 58.084 126.384 58.5057 126.717 58.9911C127.208 59.6318 127.498 60.4049 127.55 61.2119Z" fill="black"/>
<path d="M131.586 68.8638C131.526 69.4787 131.307 70.0673 130.949 70.5709C130.603 71.071 130.126 71.4654 129.57 71.7103L128.474 72.2175C127.917 72.4773 127.3 72.5823 126.689 72.5213C126.076 72.4598 125.49 72.2405 124.988 71.8848C124.481 71.5346 124.08 71.0518 123.829 70.4888L123.561 69.8958C123.3 69.3385 123.199 68.719 123.269 68.1069C123.326 67.4923 123.543 66.9031 123.897 66.3982C124.249 65.8948 124.73 65.4957 125.288 65.2427L126.412 64.7858C126.966 64.5257 127.58 64.4203 128.188 64.4805C128.8 64.5459 129.385 64.7648 129.889 65.117C130.386 65.4685 130.778 65.9496 131.022 66.5084L131.289 67.1013C131.541 67.6521 131.643 68.2601 131.586 68.8638ZM128.869 66.8928C128.724 66.832 128.567 66.8033 128.41 66.8085C128.252 66.8137 128.098 66.8528 127.957 66.9231L125.925 67.8565C125.785 67.9186 125.658 68.008 125.553 68.1197C125.448 68.2313 125.365 68.3629 125.311 68.5067C125.257 68.6504 125.232 68.8035 125.238 68.957C125.244 69.1105 125.28 69.2613 125.344 69.4006L125.335 69.4535C125.396 69.5932 125.484 69.719 125.595 69.823C125.706 69.9271 125.837 70.0072 125.981 70.0586C126.126 70.1194 126.282 70.1482 126.44 70.143C126.597 70.1378 126.752 70.0987 126.893 70.0284L128.934 69.0966C129.073 69.0328 129.198 68.9418 129.302 68.829C129.406 68.7161 129.487 68.5836 129.539 68.4392C129.601 68.2937 129.631 68.1365 129.626 67.9785C129.62 67.8204 129.581 67.6655 129.51 67.5244L129.519 67.4715C129.457 67.3368 129.368 67.2162 129.257 67.1171C129.147 67.0179 129.018 66.9421 128.878 66.8944L128.869 66.8928Z" fill="black"/>
<path d="M127.161 80.8464L126.676 78.8142L129.47 75.6682L129.543 75.6173L126.115 76.4412L125.594 74.257L133.342 72.3757L133.815 74.3695L130.953 77.5944L130.882 77.6364L134.386 76.7897L134.906 78.9827L127.161 80.8464Z" fill="black"/>
<path d="M127.604 89.4391L127.506 86.9111L128.897 86.3741L128.792 83.8357L127.358 83.4284L127.266 81.0742L135.332 83.4061L135.457 86.4483L127.604 89.4391ZM132.934 84.9209L130.49 84.3353L130.548 85.7554L132.932 84.9842L132.934 84.9209Z" fill="black"/>
<path d="M129.062 92.4341L128.681 95.3143L126.717 95.2954L127.451 89.7396L135.348 90.7681L135.024 93.2217L129.062 92.4341Z" fill="black"/>
<path d="M131.514 101.354L131.758 100.487L127.38 99.2967L127.137 100.163L125.484 99.7173L126.615 95.5139L128.276 95.9616L128.033 96.8283L132.412 98.0099L132.656 97.1431L134.298 97.5965L133.167 101.8L131.514 101.354Z" fill="black"/>
<path d="M129.514 108.943L125.791 103.992L124.538 106.883L122.854 106.149L125.489 100.046L126.138 100.324L129.851 105.336L130.981 102.734L132.665 103.467L130.181 109.224L129.514 108.943Z" fill="black"/>
<path d="M124.522 114.839L126.344 112.013L125.375 111.387L123.61 114.096L122.121 113.133L123.87 110.413L122.796 109.714L120.965 112.538L119.248 111.735L122.494 106.695L129.181 111.04L125.928 116.07L124.522 114.839Z" fill="black"/>
<path d="M112.437 127.999C112.011 128.038 111.583 127.962 111.197 127.781C110.808 127.598 110.476 127.313 110.236 126.956L110.083 126.747C109.841 126.39 109.695 125.976 109.66 125.545C109.621 125.121 109.697 124.695 109.878 124.31C110.063 123.918 110.347 123.582 110.702 123.336L112.188 122.315L110.579 119.976L112.583 118.583L117.119 125.15L113.636 127.574C113.281 127.82 112.867 127.967 112.437 127.999ZM113.182 123.773L112.304 124.383C112.223 124.433 112.154 124.501 112.104 124.582C112.053 124.663 112.022 124.755 112.013 124.85C111.985 125.027 112.028 125.208 112.133 125.353L112.212 125.467C112.308 125.618 112.458 125.725 112.631 125.768C112.725 125.792 112.824 125.794 112.919 125.772C113.014 125.751 113.102 125.708 113.178 125.647L114.056 125.037L113.182 123.773Z" fill="black"/>
<path d="M104.008 130.607L107.052 129.179L106.557 128.128L103.597 129.489L102.849 127.874L105.809 126.513L105.262 125.343L102.22 126.762L101.21 125.138L106.627 122.591L109.992 129.834L104.576 132.372L104.008 130.607Z" fill="black"/>
<path d="M97.2403 134.28C96.8819 134.214 96.5472 134.054 96.27 133.817C95.99 133.58 95.7897 133.262 95.6962 132.907C95.6266 132.629 95.619 132.338 95.6738 132.057C95.7186 131.752 95.8287 131.462 95.9965 131.204C96.1462 130.974 96.3543 130.788 96.5993 130.664C96.1819 130.656 95.7836 130.488 95.4853 130.195C95.1676 129.869 94.9447 129.461 94.8408 129.017C94.768 128.709 94.6524 128.413 94.4972 128.138C94.4418 128.029 94.3568 127.939 94.2522 127.877C94.1476 127.815 94.0276 127.784 93.9061 127.788L93.7801 127.32C94.1703 127.05 94.6074 126.856 95.0689 126.747C95.4825 126.599 95.9349 126.605 96.3445 126.763C96.5355 126.869 96.6998 127.018 96.8252 127.198C96.9506 127.377 97.0336 127.583 97.0682 127.8C97.1616 128.21 97.3331 128.599 97.5736 128.944C97.6827 129.08 97.8332 129.177 98.0023 129.22C98.1714 129.263 98.3499 129.25 98.5108 129.182L99.1585 129.005L98.3616 126.017L100.656 125.394L102.713 133.116L98.2991 134.239C97.9538 134.334 97.5916 134.347 97.2403 134.28ZM99.5571 130.704L98.3677 131.022C98.2938 131.04 98.2243 131.072 98.1633 131.118C98.1023 131.163 98.051 131.221 98.0128 131.287C97.97 131.351 97.941 131.423 97.9276 131.499C97.9142 131.575 97.9167 131.653 97.935 131.728L97.9603 131.841C97.9797 131.916 98.0139 131.986 98.0606 132.048C98.1074 132.109 98.166 132.16 98.2328 132.199C98.2952 132.241 98.3658 132.27 98.44 132.283C98.5143 132.296 98.5905 132.293 98.6636 132.275L99.8529 131.957L99.5571 130.704Z" fill="black"/>
<path d="M88.3589 135.134C88.0463 134.96 87.7847 134.707 87.6002 134.4C87.4157 134.093 87.3148 133.742 87.3075 133.384L87.3324 133.243L89.5479 133.069C89.5526 133.173 89.58 133.274 89.628 133.366C89.6761 133.458 89.7437 133.538 89.826 133.6C90.0507 133.734 90.3165 133.781 90.5734 133.732C90.8191 133.726 91.06 133.663 91.277 133.547C91.3458 133.511 91.4027 133.456 91.4404 133.388C91.4782 133.321 91.4952 133.243 91.4892 133.166C91.4786 133.077 91.4441 132.993 91.3895 132.923C91.3348 132.852 91.2621 132.798 91.179 132.766C90.9005 132.655 90.6075 132.585 90.309 132.558L89.2715 132.375C87.8119 132.117 87.0373 131.471 86.9183 130.295C86.854 129.897 86.8912 129.489 87.0263 129.108C87.1615 128.728 87.3903 128.389 87.6915 128.121C88.426 127.569 89.3141 127.261 90.2312 127.24C90.8041 127.193 91.3808 127.242 91.9371 127.387C92.434 127.515 92.8862 127.777 93.2449 128.145C93.5929 128.523 93.7956 129.014 93.8169 129.528L93.7936 129.661C93.7915 129.709 93.7832 129.756 93.7687 129.802L91.5252 129.979C91.5382 129.933 91.5466 129.886 91.5501 129.838C91.5451 129.727 91.5158 129.618 91.4643 129.519C91.4128 129.421 91.3403 129.335 91.2519 129.267C90.9902 129.103 90.6748 129.047 90.3726 129.112C90.0743 129.115 89.7802 129.184 89.5118 129.315C89.4465 129.354 89.3931 129.411 89.3572 129.478C89.3214 129.545 89.3045 129.621 89.3083 129.698C89.3194 129.793 89.3595 129.882 89.4232 129.954C89.4868 130.025 89.5709 130.075 89.664 130.097C90.0058 130.193 90.3563 130.255 90.7104 130.281C91.2176 130.332 91.7202 130.42 92.214 130.547C92.6224 130.67 92.9915 130.898 93.285 131.208C93.623 131.592 93.8156 132.084 93.8291 132.596C93.8771 133.095 93.7569 133.596 93.4876 134.019C93.1967 134.433 92.8006 134.762 92.3404 134.972C91.8072 135.212 91.2355 135.355 90.6523 135.393C89.8787 135.531 89.082 135.441 88.3589 135.134Z" fill="black"/>
<path d="M79.6958 134.698C79.2072 134.337 78.8205 133.855 78.5734 133.299C78.3181 132.738 78.2236 132.117 78.3005 131.505L78.4314 130.3C78.4923 129.682 78.7216 129.093 79.0942 128.597C79.4572 128.112 79.9368 127.727 80.4882 127.479C81.0478 127.222 81.6674 127.126 82.2776 127.203L82.9272 127.272C83.5434 127.33 84.131 127.56 84.6236 127.935C85.1121 128.296 85.4989 128.778 85.746 129.333C85.9973 129.896 86.0916 130.516 86.0188 131.128L85.888 132.333C85.8249 132.95 85.5957 133.539 85.2251 134.036C84.8648 134.526 84.384 134.915 83.8296 135.163C83.27 135.42 82.6504 135.515 82.0402 135.439L81.3906 135.37C80.7741 135.309 80.187 135.076 79.6958 134.698ZM82.7772 133.367C82.8963 133.272 82.9953 133.154 83.0687 133.02C83.1421 132.887 83.1884 132.74 83.2048 132.588L83.4458 130.347C83.465 130.195 83.4539 130.04 83.4131 129.893C83.3722 129.745 83.3023 129.607 83.2077 129.486C83.1107 129.368 82.9912 129.269 82.8561 129.197C82.721 129.125 82.573 129.08 82.4206 129.066L82.3678 129.056C82.2152 129.036 82.0602 129.048 81.9123 129.091C81.7644 129.134 81.6269 129.207 81.508 129.305C81.389 129.4 81.2899 129.518 81.2165 129.652C81.1431 129.786 81.0969 129.933 81.0804 130.085L80.8394 132.325C80.8206 132.477 80.8323 132.632 80.874 132.779C80.9157 132.927 80.9864 133.064 81.082 133.184C81.1776 133.303 81.2961 133.402 81.4305 133.475C81.5649 133.547 81.7125 133.592 81.8646 133.607L81.9174 133.616C82.0699 133.635 82.2247 133.622 82.3724 133.58C82.5202 133.537 82.6579 133.465 82.7772 133.367Z" fill="black"/>
<path d="M71.7098 124.766L73.7046 125.382L74.964 129.397L74.9484 129.485L75.9979 126.104L78.1391 126.764L75.7776 134.398L73.8267 133.79L72.5462 129.689L72.5617 129.601L71.491 133.051L69.3426 132.381L71.7098 124.766Z" fill="black"/>
<path d="M64.1082 120.778L66.335 121.981L66.0752 123.454L68.3021 124.656L69.3898 123.629L71.4605 124.74L65.3371 130.519L62.6769 129.05L64.1082 120.778ZM65.2742 127.688L67.0244 125.886L65.7744 125.211L65.2246 127.661L65.2742 127.688Z" fill="black"/>
<path d="M60.8236 120.536L58.5541 118.753L59.5687 117.113L63.9469 120.614L59.0223 126.895L57.0879 125.372L60.8236 120.536Z" fill="black"/>
<path d="M51.9225 118.057L52.5822 118.737L55.861 115.567L55.2101 114.889L56.4464 113.688L59.4571 116.82L58.2208 118.021L57.5698 117.342L54.2926 120.503L54.9436 121.182L53.7176 122.376L50.6966 119.251L51.9225 118.057Z" fill="black"/>
<path d="M46.4491 112.489L52.607 111.81L50.7651 109.247L52.2821 108.15L56.1557 113.536L55.5835 113.954L49.3863 114.599L51.0473 116.902L49.5405 117.992L45.9032 112.911L46.4491 112.489Z" fill="black"/>
<path d="M43.9336 105.159L45.4277 108.152L46.4268 107.627L44.989 104.727L46.5882 103.935L48.0172 106.834L49.171 106.255L47.6768 103.263L49.2788 102.199L51.9575 107.575L44.8197 111.137L42.141 105.762L43.9336 105.159Z" fill="black"/>
<path d="M38.8391 88.0329C39.0213 87.6454 39.3052 87.3149 39.6604 87.077C40.0179 86.8407 40.4297 86.7004 40.8565 86.6693L41.1136 86.651C41.4342 86.6262 41.7564 86.6657 42.0614 86.7672C42.3665 86.8687 42.6482 87.0302 42.8902 87.2423C43.1322 87.4543 43.3296 87.7127 43.4709 88.0022C43.6122 88.2918 43.6944 88.6067 43.7129 88.9286L43.8327 90.7691L46.6607 90.5673L46.8288 93.0075L38.8796 93.5617L38.5928 89.3266C38.5507 88.8808 38.6361 88.432 38.8391 88.0329ZM42.0687 90.8492L41.9958 89.772C41.9941 89.6768 41.9708 89.5831 41.9276 89.4983C41.8844 89.4134 41.8226 89.3396 41.7467 89.2824C41.6058 89.1697 41.4272 89.1154 41.2475 89.1307L41.1157 89.1074C40.9397 89.1217 40.7747 89.1992 40.651 89.3257C40.5812 89.3938 40.5282 89.4773 40.4961 89.5696C40.4641 89.6619 40.4541 89.7604 40.4667 89.8572L40.5412 90.9255L42.0687 90.8492Z" fill="black"/>
<path d="M40.9342 79.4416L40.597 82.7934L41.7469 82.9052L42.0783 79.6889L43.8602 79.8666L43.5376 83.0845L44.8194 83.2196L45.1565 79.8678L47.0756 79.8332L46.4688 85.7936L38.5405 84.996L39.1312 79.0236L40.9342 79.4416Z" fill="black"/>
<path d="M41.2427 71.7281C41.4871 71.4553 41.7948 71.2472 42.1384 71.1219C42.4858 71.005 42.8605 70.9981 43.2117 71.102C43.4866 71.1802 43.7408 71.3182 43.9564 71.5062C44.1766 71.7005 44.3569 71.9362 44.4868 72.2001C44.6118 72.4435 44.6642 72.7181 44.6375 72.9908L44.7254 73.0063C44.9463 72.6467 45.2937 72.3833 45.6987 72.2682C46.1421 72.1584 46.6069 72.1743 47.0415 72.314C47.327 72.4024 47.6224 72.4545 47.9208 72.469C48.0441 72.4757 48.1669 72.4477 48.2752 72.388C48.3834 72.3283 48.473 72.2394 48.5335 72.1313L48.9995 72.2135C49.0304 72.689 48.9739 73.1662 48.8328 73.6214C48.7454 74.0521 48.5104 74.4387 48.1687 74.7141C47.9843 74.8187 47.779 74.8806 47.5677 74.8953C47.3565 74.91 47.1447 74.8771 46.9479 74.799C46.5471 74.6711 46.1261 74.6184 45.706 74.6437C45.5335 74.6699 45.3739 74.751 45.2508 74.8751C45.1277 74.9992 45.0476 75.1596 45.0224 75.3328L44.8442 75.9836L47.8161 76.8169L47.1664 79.113L39.4858 77.0128L40.7033 72.6791C40.8072 72.3245 40.9918 71.999 41.2427 71.7281ZM43.1306 75.5723L43.458 74.3838C43.4802 74.3101 43.4873 74.2327 43.479 74.1562C43.4707 74.0797 43.447 74.0057 43.4096 73.9386C43.3729 73.8716 43.3228 73.8129 43.2624 73.7662C43.2019 73.7196 43.1325 73.686 43.0585 73.6675L42.9442 73.6473C42.8699 73.6268 42.7922 73.6214 42.7157 73.6314C42.6393 73.6413 42.5655 73.6664 42.4988 73.7053C42.3663 73.783 42.2692 73.9095 42.2281 74.0578L41.8919 75.2447L43.1306 75.5723Z" fill="black"/>
<path d="M45.0668 63.6144C45.3758 63.436 45.7256 63.3409 46.0819 63.3383C46.4383 63.3358 46.7891 63.4259 47.1002 63.5999L47.2321 63.6232L46.2536 65.6248C46.1615 65.5767 46.0602 65.5489 45.9564 65.5432C45.8527 65.5374 45.749 65.5539 45.652 65.5915C45.4158 65.7082 45.2315 65.9094 45.1355 66.1554C45.0116 66.3689 44.944 66.6106 44.9392 66.8576C44.9342 66.9331 44.9511 67.0084 44.9876 67.0745C45.0242 67.1406 45.079 67.1948 45.1454 67.2305C45.2276 67.2702 45.3194 67.2851 45.4099 67.2737C45.5004 67.2622 45.5857 67.2247 45.6555 67.1658C45.8863 66.9848 46.0914 66.7731 46.2651 66.5365L46.9219 65.7426C47.8493 64.5962 48.8389 64.2795 49.8909 64.7925C50.2705 64.9386 50.6071 65.1787 50.8691 65.4905C51.1312 65.8024 51.3102 66.1757 51.3896 66.5759C51.4879 67.4889 51.2969 68.41 50.8439 69.2086C50.5972 69.729 50.2621 70.2025 49.8537 70.6078C49.4886 70.9691 49.0331 71.2251 48.5354 71.3486C48.0336 71.4521 47.5119 71.3793 47.0576 71.1427L46.9169 71.1178L46.7938 71.0961L47.7858 69.0697L47.9177 69.0929C48.0142 69.1467 48.1214 69.1781 48.2315 69.1849C48.3417 69.1918 48.452 69.1738 48.5544 69.1324C48.8206 68.9982 49.0264 68.768 49.1304 68.4881C49.2923 68.2285 49.3852 67.9317 49.4003 67.626C49.4003 67.5498 49.3792 67.4752 49.3394 67.4104C49.2996 67.3455 49.2427 67.2931 49.1749 67.2588C49.088 67.219 48.991 67.2071 48.897 67.2247C48.803 67.2423 48.7167 67.2886 48.6499 67.3572C48.3905 67.5969 48.153 67.8595 47.9403 68.1418C47.6295 68.5482 47.2865 68.9288 46.9146 69.2799C46.6019 69.5691 46.2193 69.7714 45.8049 69.8665C45.3106 69.9378 44.8066 69.8564 44.3601 69.633C43.9135 69.4096 43.5457 69.0549 43.3054 68.6162C43.0907 68.155 43.0083 67.6428 43.0676 67.137C43.1319 66.5523 43.3027 65.9842 43.5716 65.4611C43.8775 64.7112 44.3978 64.0686 45.0668 63.6144Z" fill="black"/>
<path d="M49.8509 56.3807C50.4122 56.1469 51.0234 56.0606 51.6269 56.1298C52.2427 56.1977 52.8282 56.433 53.3201 56.8104L54.2891 57.5362C54.7788 57.9062 55.1611 58.4006 55.3965 58.9686C55.6316 59.5306 55.717 60.1443 55.6445 60.7498C55.5831 61.3694 55.3471 61.9588 54.9641 62.4491L54.5728 62.9714C54.2089 63.4652 53.7179 63.8504 53.1525 64.0855C52.5912 64.3192 51.98 64.4055 51.3766 64.3363C50.7607 64.2684 50.1753 64.0331 49.6833 63.6557L48.7174 62.9123C48.2255 62.5445 47.8427 62.0494 47.61 61.4799C47.3759 60.9207 47.2899 60.3102 47.3604 59.7075C47.4314 59.0903 47.6664 58.5034 48.0408 58.0082L48.4321 57.4859C48.7967 56.9955 49.2871 56.6135 49.8509 56.3807ZM49.4171 59.7154C49.4371 59.868 49.4876 60.0149 49.5655 60.1474C49.6434 60.2799 49.747 60.3953 49.8704 60.4867L51.6626 61.8397C51.7842 61.9344 51.9238 62.0033 52.0728 62.042C52.2218 62.0808 52.3772 62.0888 52.5295 62.0653C52.6816 62.045 52.8281 61.9942 52.9603 61.916C53.0925 61.8377 53.2076 61.7335 53.2989 61.6097L53.3082 61.5568C53.4027 61.4347 53.4716 61.2946 53.5104 61.1451C53.5492 60.9955 53.5573 60.8397 53.5341 60.6869C53.5141 60.5344 53.4636 60.3875 53.3857 60.255C53.3078 60.1225 53.2041 60.0071 53.0808 59.9157L51.2885 58.5626C51.1669 58.4679 51.0274 58.3991 50.8784 58.3603C50.7293 58.3215 50.5739 58.3136 50.4217 58.337C50.2696 58.3573 50.1231 58.4081 49.9909 58.4864C49.8587 58.5647 49.7435 58.6688 49.6523 58.7926L49.643 58.8456C49.5484 58.9676 49.4797 59.1077 49.4408 59.2573C49.402 59.4068 49.3939 59.5627 49.4171 59.7154Z" fill="black"/>
<path d="M62.4825 54.5685L60.9213 55.967L56.8394 55.0016L56.7515 54.9861L59.1065 57.6209L57.4325 59.1451L52.1331 53.2075L53.6544 51.8293L57.8299 52.8293L57.9091 52.8433L55.4915 50.1519L57.1743 48.6293L62.4825 54.5685Z" fill="black"/>
<path d="M69.7795 50.0518L67.5836 51.3475L66.4481 50.3832L64.2771 51.6923L64.6106 53.1429L62.5829 54.3591L60.7693 46.1343L63.4008 44.5789L69.7795 50.0518ZM63.2614 47.5289L63.9127 49.9543L65.1234 49.2581L63.3054 47.5367L63.2614 47.5289Z" fill="black"/>
<path d="M71.6826 47.3309L74.3781 46.287L75.3048 48.0241L70.0965 50.0531L67.2212 42.6053L69.5187 41.7096L71.6826 47.3309Z" fill="black"/>
<path d="M78.3205 40.8962L77.3758 41.1117L78.4095 45.533L79.3541 45.3175L79.7471 46.9969L75.5252 48.0081L75.1307 46.3375L76.0753 46.122L75.0432 41.6919L74.0986 41.9074L73.7026 40.2457L77.9244 39.2345L78.3205 40.8962Z" fill="black"/>
<path d="M85.92 39.0341L83.355 44.6856L86.4877 44.4011L86.6514 46.2493L80.0539 46.8507L79.989 46.1388L82.6114 40.4701L79.7932 40.7191L79.6207 38.8694L85.8582 38.3045L85.92 39.0341Z" fill="black"/>
<path d="M93.475 40.6117L90.1289 40.3583L90.0426 41.5165L93.2537 41.7644L93.1184 43.5598L89.8985 43.3105L89.7976 44.6026L93.1437 44.856L93.2303 46.7816L87.2643 46.3209L87.8791 38.3606L93.8467 38.8125L93.475 40.6117Z" fill="black"/>
<path d="M90.0279 99.6509L82.6418 98.3485L85.3797 82.8212L85.239 82.7964L78.2805 97.5795L69.8042 96.0849L68.3566 79.8196L68.1807 79.7886L65.4429 95.3159L58.725 94.1313L62.9937 69.9229L75.0927 72.0562L76.3325 85.5923L76.4731 85.6171L82.1622 73.3028L94.3316 75.4486L90.0279 99.6509Z" fill="black"/>
<path d="M114.733 84.795L104.612 83.0105L103.99 86.5394L113.768 88.2635L112.816 93.6628L103.038 91.9387L102.347 95.8558L112.512 97.6481L112.195 103.56L94.0814 100.366L98.35 76.1572L116.463 79.3511L114.733 84.795Z" fill="black"/>
</svg>
